M48
; DRILL file {KiCad 9.0.3} date 2025-07-16T22:21:33-0400
; FORMAT={-:-/ absolute / metric / decimal}
; #@! TF.CreationDate,2025-07-16T22:21:33-04:00
; #@! TF.GenerationSoftware,Kicad,Pcbnew,9.0.3
; #@! TF.FileFunction,Plated,1,2,PTH
FMAT,2
METRIC
; #@! TA.AperFunction,Plated,PTH,ViaDrill
T1C0.300
; #@! TA.AperFunction,Plated,PTH,ComponentDrill
T2C0.900
; #@! TA.AperFunction,Plated,PTH,ComponentDrill
T3C0.900
; #@! TA.AperFunction,Plated,PTH,ComponentDrill
T4C1.000
; #@! TA.AperFunction,Plated,PTH,ComponentDrill
T5C1.016
%
G90
G05
T1
X113.45Y-108.96
X113.47Y-107.95
X114.2Y-99.0
X114.2Y-100.0
X114.2Y-101.0
X118.3Y-109.9
X119.5Y-109.9
X120.6Y-109.9
X121.3Y-108.2
X121.32Y-105.08
X127.203Y-105.105
X129.286Y-103.886
X132.232Y-105.74
X132.232Y-108.687
X134.48Y-108.34
X134.493Y-105.715
X141.478Y-103.276
X141.478Y-110.084
X143.256Y-108.306
X143.27Y-105.28
X146.0Y-108.89
X153.162Y-100.838
X153.924Y-105.842
X153.924Y-108.483
X154.686Y-100.838
X156.515Y-105.41
X156.515Y-108.19
X163.15Y-103.59
X165.1Y-112.141
X171.08Y-108.37
X171.62Y-112.15
X172.025Y-100.9
X172.975Y-101.825
X173.068Y-104.127
X174.54Y-112.12
X177.83Y-109.79
X178.61Y-112.83
X188.86Y-114.73
X218.68Y-101.1
X225.815Y-101.073
X226.12Y-98.87
T2
X230.92Y-100.42
X230.92Y-103.42
T3
X221.52Y-111.13
X221.52Y-113.13
T4
X124.46Y-99.0
X127.0Y-99.0
X129.54Y-99.0
X129.54Y-114.3
X132.08Y-99.0
X134.62Y-99.0
X137.16Y-99.0
X139.7Y-99.0
X142.24Y-99.0
X144.78Y-99.0
X144.78Y-114.3
X147.32Y-99.0
X147.32Y-114.3
X149.86Y-99.0
X149.86Y-114.3
X152.4Y-114.3
X154.94Y-114.3
X157.48Y-99.0
X157.48Y-114.3
X160.02Y-99.0
X160.02Y-114.3
X162.56Y-99.0
X162.56Y-114.3
X165.1Y-99.0
X165.1Y-114.3
T5
X168.363Y-110.535
X168.363Y-112.44
X177.888Y-102.28
X179.793Y-102.28
X183.603Y-105.455
X183.603Y-107.995
X186.143Y-105.455
X186.143Y-107.995
M30
