%TF.GenerationSoftware,KiCad,Pcbnew,9.0.3*%
%TF.CreationDate,2025-07-16T22:21:56-04:00*%
%TF.ProjectId,ADBv2,41444276-322e-46b6-9963-61645f706362,rev?*%
%TF.SameCoordinates,Original*%
%TF.FileFunction,Soldermask,Top*%
%TF.FilePolarity,Negative*%
%FSLAX46Y46*%
G04 Gerber Fmt 4.6, Leading zero omitted, Abs format (unit mm)*
G04 Created by KiCad (PCBNEW 9.0.3) date 2025-07-16 22:21:56*
%MOMM*%
%LPD*%
G01*
G04 APERTURE LIST*
G04 Aperture macros list*
%AMRoundRect*
0 Rectangle with rounded corners*
0 $1 Rounding radius*
0 $2 $3 $4 $5 $6 $7 $8 $9 X,Y pos of 4 corners*
0 Add a 4 corners polygon primitive as box body*
4,1,4,$2,$3,$4,$5,$6,$7,$8,$9,$2,$3,0*
0 Add four circle primitives for the rounded corners*
1,1,$1+$1,$2,$3*
1,1,$1+$1,$4,$5*
1,1,$1+$1,$6,$7*
1,1,$1+$1,$8,$9*
0 Add four rect primitives between the rounded corners*
20,1,$1+$1,$2,$3,$4,$5,0*
20,1,$1+$1,$4,$5,$6,$7,0*
20,1,$1+$1,$6,$7,$8,$9,0*
20,1,$1+$1,$8,$9,$2,$3,0*%
G04 Aperture macros list end*
%ADD10RoundRect,0.250000X0.350000X0.450000X-0.350000X0.450000X-0.350000X-0.450000X0.350000X-0.450000X0*%
%ADD11O,1.700000X1.700000*%
%ADD12R,1.550000X0.600000*%
%ADD13R,1.800000X1.200000*%
%ADD14O,0.360000X2.020000*%
%ADD15C,1.400000*%
%ADD16O,1.800000X2.750000*%
%ADD17C,1.397000*%
%ADD18C,0.900000*%
%ADD19R,1.500000X0.700000*%
%ADD20R,0.800000X1.000000*%
%ADD21R,2.500000X2.500000*%
%ADD22R,1.700000X1.700000*%
%ADD23RoundRect,0.250000X-0.350000X-0.450000X0.350000X-0.450000X0.350000X0.450000X-0.350000X0.450000X0*%
G04 APERTURE END LIST*
D10*
%TO.C,R2*%
X148320000Y-105105200D03*
X146320000Y-105105200D03*
%TD*%
%TO.C,R5*%
X224590000Y-100870000D03*
X222590000Y-100870000D03*
%TD*%
D11*
%TO.C,J2*%
X165100000Y-99000000D03*
X162560000Y-99000000D03*
X160020001Y-99000000D03*
X157480000Y-99000000D03*
X149860000Y-99000000D03*
X147319999Y-99000000D03*
X144780000Y-99000000D03*
X142240000Y-99000000D03*
X139700000Y-99000000D03*
X137160001Y-99000000D03*
X134620000Y-99000000D03*
X132080000Y-99000000D03*
X129540000Y-99000000D03*
X127000001Y-99000000D03*
X124459999Y-99000000D03*
%TD*%
D10*
%TO.C,R4*%
X125027600Y-105105200D03*
X123027600Y-105105200D03*
%TD*%
D12*
%TO.C,EC11*%
X111940000Y-99000000D03*
X111940000Y-100000000D03*
X111940000Y-101000000D03*
X111940000Y-102000000D03*
X111940000Y-103000000D03*
D13*
X108060000Y-97700000D03*
X108060000Y-104300000D03*
%TD*%
D14*
%TO.C,U1*%
X161710000Y-103400000D03*
X161060000Y-103400000D03*
X160409999Y-103400000D03*
X159760000Y-103400000D03*
X159110001Y-103400000D03*
X158460000Y-103400000D03*
X157800000Y-103400000D03*
X157150000Y-103400000D03*
X156500000Y-103400000D03*
X155849999Y-103400000D03*
X155200000Y-103400000D03*
X154550001Y-103400000D03*
X153900000Y-103400000D03*
X153250000Y-103400000D03*
X153250000Y-110320000D03*
X153900000Y-110320000D03*
X154550001Y-110320000D03*
X155200000Y-110320000D03*
X155849999Y-110320000D03*
X156500000Y-110320000D03*
X157150000Y-110320000D03*
X157800000Y-110320000D03*
X158460000Y-110320000D03*
X159110001Y-110320000D03*
X159760000Y-110320000D03*
X160409999Y-110320000D03*
X161060000Y-110320000D03*
X161710000Y-110320000D03*
%TD*%
D10*
%TO.C,R1*%
X148320000Y-102717600D03*
X146320000Y-102717600D03*
%TD*%
D15*
%TO.C,J4*%
X221520000Y-111130000D03*
X221520000Y-113130000D03*
%TD*%
D16*
%TO.C,XIAO1*%
X185191400Y-98630040D03*
X182651400Y-98630040D03*
X180111400Y-98630040D03*
X177571400Y-98630040D03*
X175031400Y-98630040D03*
X172491400Y-98630040D03*
X169951400Y-98630040D03*
X169951400Y-114819960D03*
X172491400Y-114819960D03*
X175031400Y-114819960D03*
X177571400Y-114819960D03*
X180111400Y-114819960D03*
X182651400Y-114819960D03*
X185191400Y-114819960D03*
D17*
X186143400Y-105455000D03*
X186143400Y-107995000D03*
X183603400Y-105454999D03*
X183603400Y-107995001D03*
X177888400Y-102280000D03*
X179793400Y-102280000D03*
X168363400Y-110535000D03*
X168363400Y-112440000D03*
%TD*%
D10*
%TO.C,R3*%
X125027600Y-102717600D03*
X123027600Y-102717600D03*
%TD*%
D18*
%TO.C,SW1*%
X230920000Y-103420000D03*
X230920000Y-100420000D03*
D19*
X229120000Y-102920000D03*
X229120000Y-101920000D03*
X229120000Y-100920000D03*
D20*
X229820000Y-104670000D03*
X232020000Y-104670000D03*
X229820000Y-99170000D03*
X232020000Y-99170000D03*
%TD*%
D12*
%TO.C,SPI*%
X111890000Y-107950000D03*
X111890000Y-108950000D03*
X111890000Y-109950000D03*
X111890000Y-110950000D03*
X111890000Y-111950000D03*
D13*
X108010000Y-106650000D03*
X108010000Y-113250000D03*
%TD*%
D21*
%TO.C,V+*%
X207560000Y-98710000D03*
%TD*%
D22*
%TO.C,J3*%
X165100000Y-114300000D03*
D11*
X162560000Y-114300000D03*
X160020001Y-114300000D03*
X157480000Y-114300000D03*
X154940000Y-114300000D03*
X152400000Y-114300000D03*
X149860000Y-114300000D03*
X147319999Y-114300000D03*
X144780000Y-114300000D03*
X129540000Y-114300000D03*
%TD*%
D23*
%TO.C,R6*%
X222590000Y-98790000D03*
X224590000Y-98790000D03*
%TD*%
D14*
%TO.C,U2*%
X139700000Y-103460000D03*
X139050000Y-103460000D03*
X138399999Y-103460000D03*
X137750000Y-103460000D03*
X137100001Y-103460000D03*
X136450000Y-103460000D03*
X135790000Y-103460000D03*
X135140000Y-103460000D03*
X134490000Y-103460000D03*
X133839999Y-103460000D03*
X133190000Y-103460000D03*
X132540001Y-103460000D03*
X131890000Y-103460000D03*
X131240000Y-103460000D03*
X131240000Y-110380000D03*
X131890000Y-110380000D03*
X132540001Y-110380000D03*
X133190000Y-110380000D03*
X133839999Y-110380000D03*
X134490000Y-110380000D03*
X135140000Y-110380000D03*
X135790000Y-110380000D03*
X136450000Y-110380000D03*
X137100001Y-110380000D03*
X137750000Y-110380000D03*
X138399999Y-110380000D03*
X139050000Y-110380000D03*
X139700000Y-110380000D03*
%TD*%
M02*
