%TF.GenerationSoftware,KiCad,Pcbnew,9.0.3*%
%TF.CreationDate,2025-07-16T22:21:56-04:00*%
%TF.ProjectId,ADBv2,41444276-322e-46b6-9963-61645f706362,rev?*%
%TF.SameCoordinates,Original*%
%TF.FileFunction,Legend,Bot*%
%TF.FilePolarity,Positive*%
%FSLAX46Y46*%
G04 Gerber Fmt 4.6, Leading zero omitted, Abs format (unit mm)*
G04 Created by KiCad (PCBNEW 9.0.3) date 2025-07-16 22:21:56*
%MOMM*%
%LPD*%
G01*
G04 APERTURE LIST*
%ADD10C,0.150000*%
%ADD11C,0.250000*%
G04 APERTURE END LIST*
D10*
X223384820Y-100201905D02*
X224194343Y-100201905D01*
X224194343Y-100201905D02*
X224289581Y-100249524D01*
X224289581Y-100249524D02*
X224337201Y-100297143D01*
X224337201Y-100297143D02*
X224384820Y-100392381D01*
X224384820Y-100392381D02*
X224384820Y-100582857D01*
X224384820Y-100582857D02*
X224337201Y-100678095D01*
X224337201Y-100678095D02*
X224289581Y-100725714D01*
X224289581Y-100725714D02*
X224194343Y-100773333D01*
X224194343Y-100773333D02*
X223384820Y-100773333D01*
X224337201Y-101201905D02*
X224384820Y-101344762D01*
X224384820Y-101344762D02*
X224384820Y-101582857D01*
X224384820Y-101582857D02*
X224337201Y-101678095D01*
X224337201Y-101678095D02*
X224289581Y-101725714D01*
X224289581Y-101725714D02*
X224194343Y-101773333D01*
X224194343Y-101773333D02*
X224099105Y-101773333D01*
X224099105Y-101773333D02*
X224003867Y-101725714D01*
X224003867Y-101725714D02*
X223956248Y-101678095D01*
X223956248Y-101678095D02*
X223908629Y-101582857D01*
X223908629Y-101582857D02*
X223861010Y-101392381D01*
X223861010Y-101392381D02*
X223813391Y-101297143D01*
X223813391Y-101297143D02*
X223765772Y-101249524D01*
X223765772Y-101249524D02*
X223670534Y-101201905D01*
X223670534Y-101201905D02*
X223575296Y-101201905D01*
X223575296Y-101201905D02*
X223480058Y-101249524D01*
X223480058Y-101249524D02*
X223432439Y-101297143D01*
X223432439Y-101297143D02*
X223384820Y-101392381D01*
X223384820Y-101392381D02*
X223384820Y-101630476D01*
X223384820Y-101630476D02*
X223432439Y-101773333D01*
X223861010Y-102535238D02*
X223908629Y-102678095D01*
X223908629Y-102678095D02*
X223956248Y-102725714D01*
X223956248Y-102725714D02*
X224051486Y-102773333D01*
X224051486Y-102773333D02*
X224194343Y-102773333D01*
X224194343Y-102773333D02*
X224289581Y-102725714D01*
X224289581Y-102725714D02*
X224337201Y-102678095D01*
X224337201Y-102678095D02*
X224384820Y-102582857D01*
X224384820Y-102582857D02*
X224384820Y-102201905D01*
X224384820Y-102201905D02*
X223384820Y-102201905D01*
X223384820Y-102201905D02*
X223384820Y-102535238D01*
X223384820Y-102535238D02*
X223432439Y-102630476D01*
X223432439Y-102630476D02*
X223480058Y-102678095D01*
X223480058Y-102678095D02*
X223575296Y-102725714D01*
X223575296Y-102725714D02*
X223670534Y-102725714D01*
X223670534Y-102725714D02*
X223765772Y-102678095D01*
X223765772Y-102678095D02*
X223813391Y-102630476D01*
X223813391Y-102630476D02*
X223861010Y-102535238D01*
X223861010Y-102535238D02*
X223861010Y-102201905D01*
X224384820Y-103725714D02*
X224384820Y-103154286D01*
X224384820Y-103440000D02*
X223384820Y-103440000D01*
X223384820Y-103440000D02*
X223527677Y-103344762D01*
X223527677Y-103344762D02*
X223622915Y-103249524D01*
X223622915Y-103249524D02*
X223670534Y-103154286D01*
D11*
%TO.C,USB1*%
X227550000Y-98510000D02*
X227550000Y-97850000D01*
X227550000Y-106030000D02*
X227550000Y-105370000D01*
X228709999Y-97440000D02*
X230650001Y-97440000D01*
X228709999Y-106440000D02*
X230650001Y-106440000D01*
X232510000Y-97440000D02*
X234380000Y-97440000D01*
X232510000Y-106440000D02*
X234380000Y-106440000D01*
X234380000Y-106440000D02*
X234380000Y-97440000D01*
%TD*%
M02*
