%TF.GenerationSoftware,KiCad,Pcbnew,9.0.3*%
%TF.CreationDate,2025-07-16T22:21:56-04:00*%
%TF.ProjectId,ADBv2,41444276-322e-46b6-9963-61645f706362,rev?*%
%TF.SameCoordinates,Original*%
%TF.FileFunction,Soldermask,Bot*%
%TF.FilePolarity,Negative*%
%FSLAX46Y46*%
G04 Gerber Fmt 4.6, Leading zero omitted, Abs format (unit mm)*
G04 Created by KiCad (PCBNEW 9.0.3) date 2025-07-16 22:21:56*
%MOMM*%
%LPD*%
G01*
G04 APERTURE LIST*
%ADD10O,1.700000X1.700000*%
%ADD11C,1.400000*%
%ADD12C,1.397000*%
%ADD13C,0.900000*%
%ADD14R,1.700000X1.700000*%
%ADD15R,1.400000X2.000000*%
%ADD16R,1.000000X2.200000*%
%ADD17R,1.300000X0.700000*%
%ADD18R,1.300000X0.800000*%
%ADD19R,1.300000X0.900000*%
G04 APERTURE END LIST*
D10*
%TO.C,J2*%
X165100000Y-99000000D03*
X162560000Y-99000000D03*
X160020001Y-99000000D03*
X157480000Y-99000000D03*
X149860000Y-99000000D03*
X147319999Y-99000000D03*
X144780000Y-99000000D03*
X142240000Y-99000000D03*
X139700000Y-99000000D03*
X137160001Y-99000000D03*
X134620000Y-99000000D03*
X132080000Y-99000000D03*
X129540000Y-99000000D03*
X127000001Y-99000000D03*
X124459999Y-99000000D03*
%TD*%
D11*
%TO.C,J4*%
X221520000Y-111130000D03*
X221520000Y-113130000D03*
%TD*%
D12*
%TO.C,XIAO1*%
X186143400Y-105455000D03*
X186143400Y-107995000D03*
X183603400Y-105454999D03*
X183603400Y-107995001D03*
X177888400Y-102280000D03*
X179793400Y-102280000D03*
X168363400Y-110535000D03*
X168363400Y-112440000D03*
%TD*%
D13*
%TO.C,SW1*%
X230920000Y-103420000D03*
X230920000Y-100420000D03*
%TD*%
D14*
%TO.C,J3*%
X165100000Y-114300000D03*
D10*
X162560000Y-114300000D03*
X160020001Y-114300000D03*
X157480000Y-114300000D03*
X154940000Y-114300000D03*
X152400000Y-114300000D03*
X149860000Y-114300000D03*
X147319999Y-114300000D03*
X144780000Y-114300000D03*
X129540000Y-114300000D03*
%TD*%
D15*
%TO.C,USB1*%
X231570000Y-96620000D03*
D16*
X227980000Y-96670000D03*
X227980000Y-107210000D03*
D15*
X231570000Y-107260000D03*
D17*
X227930000Y-101440000D03*
D18*
X227930000Y-103460000D03*
D19*
X227930000Y-104690000D03*
D17*
X227930000Y-102440000D03*
D18*
X227930000Y-100420000D03*
D19*
X227930000Y-99190000D03*
%TD*%
M02*
