%TF.GenerationSoftware,KiCad,Pcbnew,9.0.3*%
%TF.CreationDate,2025-07-16T22:21:56-04:00*%
%TF.ProjectId,ADBv2,41444276-322e-46b6-9963-61645f706362,rev?*%
%TF.SameCoordinates,Original*%
%TF.FileFunction,Profile,NP*%
%FSLAX46Y46*%
G04 Gerber Fmt 4.6, Leading zero omitted, Abs format (unit mm)*
G04 Created by KiCad (PCBNEW 9.0.3) date 2025-07-16 22:21:56*
%MOMM*%
%LPD*%
G01*
G04 APERTURE LIST*
%TA.AperFunction,Profile*%
%ADD10C,0.050000*%
%TD*%
G04 APERTURE END LIST*
D10*
X222587800Y-95913000D02*
G75*
G02*
X223187800Y-95313000I600000J0D01*
G01*
X219610432Y-96710432D02*
X221987800Y-96713000D01*
X194120000Y-110100000D02*
X194120000Y-113713000D01*
X121000000Y-116713000D02*
X191120000Y-116713000D01*
X231987800Y-108720000D02*
X225310000Y-108720000D01*
X106000000Y-113300000D02*
X106000000Y-97713000D01*
X218310000Y-98210000D02*
X218610000Y-98210000D01*
X178800000Y-96713000D02*
X217309969Y-96710031D01*
X121000000Y-116713000D02*
G75*
G02*
X120000000Y-115713000I0J1000000D01*
G01*
X106000000Y-97713000D02*
G75*
G02*
X107000000Y-96713000I1000000J0D01*
G01*
X219210000Y-97610000D02*
G75*
G02*
X218610000Y-98210000I-600000J0D01*
G01*
X223310000Y-116713000D02*
X209120000Y-116713000D01*
X218310000Y-98210000D02*
G75*
G02*
X217710000Y-97610000I0J600000D01*
G01*
X209120000Y-116713000D02*
G75*
G02*
X206120000Y-113713000I0J3000000D01*
G01*
X222587800Y-96113000D02*
X222587800Y-95913000D01*
X219210000Y-97610000D02*
X219210000Y-97110432D01*
X232587800Y-95913000D02*
X232587800Y-108120000D01*
X219210000Y-97110432D02*
G75*
G02*
X219610432Y-96710400I400000J32D01*
G01*
X231987800Y-95313000D02*
G75*
G02*
X232587800Y-95913000I0J-600000D01*
G01*
X194120000Y-110100000D02*
G75*
G02*
X200120000Y-104100000I6000000J0D01*
G01*
X224310000Y-109720000D02*
G75*
G02*
X225310000Y-108720000I1000000J0D01*
G01*
X107000000Y-114300000D02*
G75*
G02*
X106000000Y-113300000I0J1000000D01*
G01*
X217309969Y-96710031D02*
G75*
G02*
X217709969Y-97110031I31J-399969D01*
G01*
X222587800Y-96113000D02*
G75*
G02*
X221987800Y-96713000I-600000J0D01*
G01*
X119000000Y-114300000D02*
X107000000Y-114300000D01*
X119000000Y-114300000D02*
G75*
G02*
X120000000Y-115300000I0J-1000000D01*
G01*
X223187800Y-95313000D02*
X231987800Y-95313000D01*
X200120000Y-104100000D02*
G75*
G02*
X206120000Y-110100000I0J-6000000D01*
G01*
X224310000Y-109720000D02*
X224310000Y-115713000D01*
X120000000Y-115713000D02*
X120000000Y-115300000D01*
X217710000Y-97110031D02*
X217710000Y-97610000D01*
X194120000Y-113713000D02*
G75*
G02*
X191120000Y-116713000I-3000000J0D01*
G01*
X206120000Y-110100000D02*
X206120000Y-113713000D01*
X107000000Y-96713000D02*
X178800000Y-96713000D01*
X232587800Y-108120000D02*
G75*
G02*
X231987800Y-108720000I-600000J0D01*
G01*
X224310000Y-115713000D02*
G75*
G02*
X223310000Y-116713000I-1000000J0D01*
G01*
M02*
