%TF.GenerationSoftware,KiCad,Pcbnew,9.0.3*%
%TF.CreationDate,2025-07-16T22:21:56-04:00*%
%TF.ProjectId,ADBv2,41444276-322e-46b6-9963-61645f706362,rev?*%
%TF.SameCoordinates,Original*%
%TF.FileFunction,Copper,L2,Bot*%
%TF.FilePolarity,Positive*%
%FSLAX46Y46*%
G04 Gerber Fmt 4.6, Leading zero omitted, Abs format (unit mm)*
G04 Created by KiCad (PCBNEW 9.0.3) date 2025-07-16 22:21:56*
%MOMM*%
%LPD*%
G01*
G04 APERTURE LIST*
%TA.AperFunction,ComponentPad*%
%ADD10O,1.700000X1.700000*%
%TD*%
%TA.AperFunction,ComponentPad*%
%ADD11C,1.400000*%
%TD*%
%TA.AperFunction,ComponentPad*%
%ADD12C,1.397000*%
%TD*%
%TA.AperFunction,ComponentPad*%
%ADD13C,0.900000*%
%TD*%
%TA.AperFunction,ComponentPad*%
%ADD14R,1.700000X1.700000*%
%TD*%
%TA.AperFunction,SMDPad,CuDef*%
%ADD15R,1.400000X2.000000*%
%TD*%
%TA.AperFunction,SMDPad,CuDef*%
%ADD16R,1.000000X2.200000*%
%TD*%
%TA.AperFunction,SMDPad,CuDef*%
%ADD17R,1.300000X0.700000*%
%TD*%
%TA.AperFunction,SMDPad,CuDef*%
%ADD18R,1.300000X0.800000*%
%TD*%
%TA.AperFunction,SMDPad,CuDef*%
%ADD19R,1.300000X0.900000*%
%TD*%
%TA.AperFunction,ViaPad*%
%ADD20C,0.600000*%
%TD*%
%TA.AperFunction,Conductor*%
%ADD21C,0.200000*%
%TD*%
%TA.AperFunction,Conductor*%
%ADD22C,0.300000*%
%TD*%
G04 APERTURE END LIST*
D10*
%TO.P,J2,1,R2*%
%TO.N,Net-(J2-R2)*%
X165100000Y-99000000D03*
%TO.P,J2,2,R1*%
%TO.N,Net-(J2-R1)*%
X162560000Y-99000000D03*
%TO.P,J2,3,OPTION*%
%TO.N,Net-(J2-OPTION)*%
X160020001Y-99000000D03*
%TO.P,J2,4,COMMAND*%
%TO.N,Net-(J2-COMMAND)*%
X157480000Y-99000000D03*
%TO.P,J2,7,R4*%
%TO.N,Net-(J2-R4)*%
X149860000Y-99000000D03*
%TO.P,J2,8,R5*%
%TO.N,Net-(J2-R5)*%
X147319999Y-99000000D03*
%TO.P,J2,9,R6*%
%TO.N,Net-(J2-R6)*%
X144780000Y-99000000D03*
%TO.P,J2,10,R7*%
%TO.N,Net-(J2-R7)*%
X142240000Y-99000000D03*
%TO.P,J2,11,R0*%
%TO.N,Net-(J2-R0)*%
X139700000Y-99000000D03*
%TO.P,J2,12,R8*%
%TO.N,Net-(J2-R8)*%
X137160001Y-99000000D03*
%TO.P,J2,13,R3*%
%TO.N,Net-(J2-R3)*%
X134620000Y-99000000D03*
%TO.P,J2,14,R9*%
%TO.N,Net-(J2-R9)*%
X132080000Y-99000000D03*
%TO.P,J2,15,POWER*%
%TO.N,Net-(J2-POWER)*%
X129540000Y-99000000D03*
%TO.P,J2,16,CONTROL*%
%TO.N,Net-(J2-CONTROL)*%
X127000001Y-99000000D03*
%TO.P,J2,17,SHIFT*%
%TO.N,Net-(J2-SHIFT)*%
X124459999Y-99000000D03*
%TD*%
D11*
%TO.P,J4,1,Pin_1*%
%TO.N,Net-(J4-Pin_1)*%
X221520000Y-111130000D03*
%TO.P,J4,2,Pin_2*%
%TO.N,Net-(J4-Pin_2)*%
X221520000Y-113130000D03*
%TD*%
D12*
%TO.P,XIAO1,15,A31_SWDIO*%
%TO.N,unconnected-(XIAO1-A31_SWDIO-Pad15)*%
X186143400Y-105455000D03*
%TO.P,XIAO1,16,A30_SWCLK*%
%TO.N,unconnected-(XIAO1-A30_SWCLK-Pad16)*%
X186143400Y-107995000D03*
%TO.P,XIAO1,17,RESET*%
%TO.N,unconnected-(XIAO1-RESET-Pad17)*%
X183603400Y-105454999D03*
%TO.P,XIAO1,18,GND*%
%TO.N,unconnected-(XIAO1-GND-Pad18)*%
X183603400Y-107995001D03*
%TO.P,XIAO1,19,BAT*%
%TO.N,Net-(J4-Pin_1)*%
X177888400Y-102280000D03*
%TO.P,XIAO1,20,GND*%
%TO.N,Net-(R5-Pad2)*%
X179793400Y-102280000D03*
%TO.P,XIAO1,21,NFC1/0.09_H*%
%TO.N,unconnected-(XIAO1-NFC1{slash}0.09_H-Pad21)*%
X168363400Y-110535000D03*
%TO.P,XIAO1,22,NFC2/0.10_H*%
%TO.N,unconnected-(XIAO1-NFC2{slash}0.10_H-Pad22)*%
X168363400Y-112440000D03*
%TD*%
D13*
%TO.P,SW1,*%
%TO.N,*%
X230920000Y-103420000D03*
X230920000Y-100420000D03*
%TD*%
D14*
%TO.P,J3,1,GROUND*%
%TO.N,GND*%
X165100000Y-114300000D03*
D10*
%TO.P,J3,2,C0*%
%TO.N,Net-(J3-C0)*%
X162560000Y-114300000D03*
%TO.P,J3,3,C1*%
%TO.N,Net-(J3-C1)*%
X160020001Y-114300000D03*
%TO.P,J3,4,C2*%
%TO.N,Net-(J3-C2)*%
X157480000Y-114300000D03*
%TO.P,J3,5,C3*%
%TO.N,Net-(J3-C3)*%
X154940000Y-114300000D03*
%TO.P,J3,6,C4*%
%TO.N,Net-(J3-C4)*%
X152400000Y-114300000D03*
%TO.P,J3,7,C5*%
%TO.N,Net-(J3-C5)*%
X149860000Y-114300000D03*
%TO.P,J3,8,C6*%
%TO.N,Net-(J3-C6)*%
X147319999Y-114300000D03*
%TO.P,J3,9,C7*%
%TO.N,Net-(J3-C7)*%
X144780000Y-114300000D03*
%TO.P,J3,15,CAPSLOCK*%
%TO.N,Net-(J3-CAPSLOCK)*%
X129540000Y-114300000D03*
%TD*%
D15*
%TO.P,USB1,7,EH*%
%TO.N,unconnected-(USB1-EH-Pad7)*%
X231570000Y-96620000D03*
D16*
X227980000Y-96670000D03*
X227980000Y-107210000D03*
D15*
X231570000Y-107260000D03*
D17*
%TO.P,USB1,A5,CC1*%
%TO.N,Net-(USB1-CC1)*%
X227930000Y-101440000D03*
D18*
%TO.P,USB1,A9,VBUS*%
%TO.N,Net-(XIAO1-5V)*%
X227930000Y-103460000D03*
D19*
%TO.P,USB1,A12,GND*%
%TO.N,Net-(R5-Pad2)*%
X227930000Y-104690000D03*
D17*
%TO.P,USB1,B5,CC2*%
%TO.N,Net-(USB1-CC2)*%
X227930000Y-102440000D03*
D18*
%TO.P,USB1,B9,VBUS*%
%TO.N,Net-(XIAO1-5V)*%
X227930000Y-100420000D03*
D19*
%TO.P,USB1,B12,GND*%
%TO.N,Net-(R5-Pad2)*%
X227930000Y-99190000D03*
%TD*%
D20*
%TO.N,GND*%
X153924000Y-108483400D03*
X153924000Y-105841800D03*
X165100000Y-112141000D03*
X132232400Y-105740200D03*
X132232400Y-108686600D03*
%TO.N,VCC*%
X134480000Y-108340000D03*
X121320000Y-105080000D03*
X143256000Y-108305600D03*
X143270000Y-105280000D03*
X177830000Y-109790000D03*
X156514800Y-108190000D03*
X121300000Y-108200000D03*
X134493000Y-105714800D03*
X178610000Y-112830000D03*
X156514800Y-105410000D03*
%TO.N,MOSI*%
X113470000Y-107950000D03*
X174540000Y-112120000D03*
%TO.N,SCK*%
X113450000Y-108960000D03*
X171620000Y-112150000D03*
%TO.N,Net-(J2-R7)*%
X141478000Y-110083600D03*
X141478000Y-103276400D03*
%TO.N,Net-(U1-SDA)*%
X172975000Y-101825000D03*
X129286000Y-103886000D03*
X153162000Y-100838000D03*
%TO.N,Net-(U1-SCK)*%
X154686000Y-100838000D03*
X172025000Y-100900000D03*
X127203200Y-105105200D03*
%TO.N,Net-(U2-GPA1)*%
X114200000Y-100000000D03*
X119500000Y-109900000D03*
%TO.N,Net-(U2-GPA2)*%
X118300000Y-109900000D03*
X114200000Y-101000000D03*
%TO.N,Net-(U2-GPA0)*%
X120600000Y-109900000D03*
X114200000Y-99000000D03*
%TO.N,Net-(USB1-CC2)*%
X225814516Y-101073046D03*
%TO.N,Net-(R5-Pad2)*%
X218680000Y-101100000D03*
%TO.N,Net-(USB1-CC1)*%
X226120000Y-98870000D03*
%TO.N,Net-(U1-INTA)*%
X171080000Y-108370000D03*
X173067540Y-104127391D03*
%TO.N,Net-(U2-INTA)*%
X163150000Y-103590000D03*
X146000000Y-108890000D03*
%TO.N,Net-(XIAO1-5V)*%
X188860000Y-114730000D03*
%TD*%
D21*
%TO.N,GND*%
X147523200Y-109982000D02*
X151663400Y-105841800D01*
X165100000Y-112141000D02*
X149682200Y-112141000D01*
X151663400Y-105841800D02*
X153924000Y-105841800D01*
X153924000Y-105841800D02*
X153924000Y-105892600D01*
X132232400Y-108686600D02*
X132232400Y-105740200D01*
X153924000Y-108483400D02*
X153924000Y-105841800D01*
X149682200Y-112141000D02*
X147523200Y-109982000D01*
X132232400Y-105740200D02*
X132232400Y-105892600D01*
%TO.N,VCC*%
X143281400Y-108305600D02*
X143256000Y-108305600D01*
X134493000Y-108327000D02*
X134480000Y-108340000D01*
X156514800Y-105410000D02*
X156514800Y-108190000D01*
X143256000Y-105294000D02*
X143270000Y-105280000D01*
X143256000Y-106603800D02*
X143256000Y-105294000D01*
X121300000Y-105060000D02*
X121320000Y-105080000D01*
X134493000Y-105714800D02*
X134493000Y-108327000D01*
X121300000Y-108200000D02*
X121296000Y-108204000D01*
X143270000Y-105280000D02*
X143256000Y-105266000D01*
X121300000Y-105100000D02*
X121300000Y-108200000D01*
D22*
X177830000Y-112390000D02*
X177960000Y-112520000D01*
X178280000Y-112840000D02*
X178610000Y-112830000D01*
X177960000Y-112520000D02*
X178280000Y-112840000D01*
D21*
X143256000Y-108280200D02*
X143256000Y-108280200D01*
X121320000Y-105080000D02*
X121300000Y-105100000D01*
X143281400Y-108305600D02*
X143281400Y-108305600D01*
D22*
X177830000Y-109790000D02*
X177830000Y-112390000D01*
X178610000Y-112830000D02*
X178610000Y-112840000D01*
D21*
X143256000Y-108280200D02*
X143256000Y-106603800D01*
X143256000Y-108305600D02*
X143256000Y-108280200D01*
%TO.N,MOSI*%
X171080000Y-111550000D02*
X166916949Y-115713051D01*
X115740000Y-108530000D02*
X114050000Y-108530000D01*
X122923051Y-115713051D02*
X115740000Y-108530000D01*
X166916949Y-115713051D02*
X122923051Y-115713051D01*
X113470000Y-107950000D02*
X113480000Y-107960000D01*
X174540000Y-112120000D02*
X173970000Y-111550000D01*
X173970000Y-111550000D02*
X171080000Y-111550000D01*
X114050000Y-108530000D02*
X113470000Y-107950000D01*
%TO.N,SCK*%
X113450000Y-108960000D02*
X113450000Y-108920000D01*
X167530000Y-115680000D02*
X167096949Y-116113051D01*
X115560000Y-108960000D02*
X113490000Y-108960000D01*
X113450000Y-108920000D02*
X113490000Y-108960000D01*
X167096949Y-116113051D02*
X122713051Y-116113051D01*
X113490000Y-108960000D02*
X113450000Y-108960000D01*
X171620000Y-112150000D02*
X168090000Y-115680000D01*
X168090000Y-115680000D02*
X167530000Y-115680000D01*
X122713051Y-116113051D02*
X115560000Y-108960000D01*
%TO.N,Net-(J2-R7)*%
X141478000Y-110083600D02*
X141478000Y-103276400D01*
%TO.N,Net-(U1-SDA)*%
X154178000Y-101854000D02*
X172946000Y-101854000D01*
X172946000Y-101854000D02*
X172975000Y-101825000D01*
X129286000Y-103886000D02*
X129286000Y-103870929D01*
X129286000Y-103870929D02*
X132318929Y-100838000D01*
X153162000Y-100838000D02*
X154178000Y-101854000D01*
X132318929Y-100838000D02*
X153162000Y-100838000D01*
%TO.N,Net-(U1-SCK)*%
X155194000Y-101346000D02*
X171579000Y-101346000D01*
X171579000Y-101346000D02*
X172025000Y-100900000D01*
X127203200Y-105105200D02*
X127152400Y-105105200D01*
X154686000Y-100838000D02*
X154086000Y-100238000D01*
X154686000Y-100838000D02*
X155194000Y-101346000D01*
X132070400Y-100238000D02*
X127203200Y-105105200D01*
X154086000Y-100238000D02*
X132070400Y-100238000D01*
%TO.N,Net-(U2-GPA1)*%
X119500000Y-109900000D02*
X119500000Y-103800000D01*
X114200000Y-100000000D02*
X114300000Y-100000000D01*
X115700000Y-100000000D02*
X114200000Y-100000000D01*
X119500000Y-103800000D02*
X115700000Y-100000000D01*
%TO.N,Net-(U2-GPA2)*%
X114200000Y-101000000D02*
X114300000Y-101000000D01*
X118300000Y-103600000D02*
X115700000Y-101000000D01*
X118300000Y-109900000D02*
X118300000Y-103600000D01*
X115700000Y-101000000D02*
X114200000Y-101000000D01*
%TO.N,Net-(U2-GPA0)*%
X120600000Y-103900000D02*
X115700000Y-99000000D01*
X114200000Y-99000000D02*
X114300000Y-99000000D01*
X120600000Y-109900000D02*
X120600000Y-103900000D01*
X115700000Y-99000000D02*
X114200000Y-99000000D01*
%TO.N,Net-(USB1-CC2)*%
X227181470Y-102440000D02*
X227930000Y-102440000D01*
X225814516Y-101073046D02*
X225814516Y-101074516D01*
X225814516Y-101073046D02*
X227181470Y-102440000D01*
D22*
%TO.N,Net-(R5-Pad2)*%
X220070000Y-97790000D02*
X220497000Y-97363000D01*
X229330000Y-100070000D02*
X229330000Y-103800000D01*
X220497000Y-97363000D02*
X226103000Y-97363000D01*
X220070000Y-99710000D02*
X220070000Y-97790000D01*
X228440000Y-104690000D02*
X227930000Y-104690000D01*
X218680000Y-101060000D02*
X218680000Y-101100000D01*
X228450000Y-99190000D02*
X229330000Y-100070000D01*
X226103000Y-97363000D02*
X227930000Y-99190000D01*
X218680000Y-101100000D02*
X220070000Y-99710000D01*
X218680000Y-101100000D02*
X218640000Y-101100000D01*
X229330000Y-103800000D02*
X228440000Y-104690000D01*
X218640000Y-101100000D02*
X218680000Y-101060000D01*
X227930000Y-99190000D02*
X228450000Y-99190000D01*
D21*
%TO.N,Net-(USB1-CC1)*%
X226120000Y-98870000D02*
X226120000Y-100480000D01*
X226120000Y-100480000D02*
X227080000Y-101440000D01*
X227080000Y-101440000D02*
X227930000Y-101440000D01*
X226120000Y-98870000D02*
X226100000Y-98900000D01*
%TO.N,Net-(U1-INTA)*%
X171080000Y-106660000D02*
X171080000Y-108370000D01*
X173067540Y-104672460D02*
X171080000Y-106660000D01*
X173067540Y-104127391D02*
X173067540Y-104672460D01*
%TO.N,Net-(U2-INTA)*%
X153200000Y-103590000D02*
X163150000Y-103590000D01*
X147990000Y-108800000D02*
X153200000Y-103590000D01*
X147900000Y-108890000D02*
X147990000Y-108800000D01*
X146000000Y-108890000D02*
X147900000Y-108890000D01*
D22*
%TO.N,Net-(XIAO1-5V)*%
X188980000Y-114730000D02*
X188860000Y-114730000D01*
X194690000Y-102790000D02*
X191860000Y-105620000D01*
D21*
X228880000Y-100520000D02*
X228880000Y-103230000D01*
X228650000Y-103460000D02*
X227930000Y-103460000D01*
X227930000Y-100420000D02*
X228780000Y-100420000D01*
D22*
X227930000Y-103460000D02*
X227310000Y-103460000D01*
D21*
X228780000Y-100420000D02*
X228880000Y-100520000D01*
D22*
X191860000Y-105620000D02*
X191860000Y-111850000D01*
X191860000Y-111850000D02*
X188980000Y-114730000D01*
X227310000Y-103460000D02*
X226640000Y-102790000D01*
D21*
X228880000Y-103230000D02*
X228650000Y-103460000D01*
D22*
X226640000Y-102790000D02*
X194690000Y-102790000D01*
%TD*%
M02*
