%TF.GenerationSoftware,KiCad,Pcbnew,8.0.3*%
%TF.CreationDate,2024-08-28T21:52:25+01:00*%
%TF.ProjectId,Seeed,53656565-642e-46b6-9963-61645f706362,rev?*%
%TF.SameCoordinates,Original*%
%TF.FileFunction,Drillmap*%
%TF.FilePolarity,Positive*%
%FSLAX45Y45*%
G04 Gerber Fmt 4.5, Leading zero omitted, Abs format (unit mm)*
G04 Created by KiCad (PCBNEW 8.0.3) date 2024-08-28 21:52:25*
%MOMM*%
%LPD*%
G01*
G04 APERTURE LIST*
%ADD10C,0.050000*%
%ADD11C,0.200000*%
G04 APERTURE END LIST*
D10*
X12100000Y-11671300D02*
G75*
G02*
X12000000Y-11571300I0J100000D01*
G01*
X11900000Y-11430000D02*
G75*
G02*
X12000000Y-11530000I0J-100000D01*
G01*
X12000000Y-11571300D02*
X12000000Y-11530000D01*
X19412000Y-11371300D02*
G75*
G02*
X19112000Y-11671300I-300000J0D01*
G01*
X20912000Y-11671300D02*
G75*
G02*
X20612000Y-11371300I0J300000D01*
G01*
X22431000Y-11571300D02*
G75*
G02*
X22331000Y-11671300I-100000J0D01*
G01*
X22431000Y-10972000D02*
G75*
G02*
X22531000Y-10872000I100000J0D01*
G01*
X20012000Y-10410000D02*
G75*
G02*
X20612000Y-11010000I0J-600000D01*
G01*
X19412000Y-11010000D02*
G75*
G02*
X20012000Y-10410000I600000J0D01*
G01*
X22331000Y-11671300D02*
X20912000Y-11671300D01*
X22431000Y-10972000D02*
X22431000Y-11571300D01*
X20612000Y-11010000D02*
X20612000Y-11371300D01*
X19412000Y-11010000D02*
X19412000Y-11371300D01*
X22258780Y-9591300D02*
G75*
G02*
X22318780Y-9531300I60000J0D01*
G01*
X21961043Y-9671043D02*
X22198780Y-9671300D01*
X12100000Y-11671300D02*
X19112000Y-11671300D01*
X23198780Y-10872000D02*
X22531000Y-10872000D01*
X10600000Y-11330000D02*
X10600000Y-9771300D01*
X21831000Y-9821000D02*
X21861000Y-9821000D01*
X17880000Y-9671300D02*
X21730997Y-9671003D01*
X10600000Y-9771300D02*
G75*
G02*
X10700000Y-9671300I100000J0D01*
G01*
X21921000Y-9761000D02*
G75*
G02*
X21861000Y-9821000I-60000J0D01*
G01*
X21831000Y-9821000D02*
G75*
G02*
X21771000Y-9761000I0J60000D01*
G01*
X22258780Y-9611300D02*
X22258780Y-9591300D01*
X21921000Y-9761000D02*
X21921000Y-9711043D01*
X23258780Y-9591300D02*
X23258780Y-10812000D01*
X21921000Y-9711043D02*
G75*
G02*
X21961043Y-9671040I40000J3D01*
G01*
X23198780Y-9531300D02*
G75*
G02*
X23258780Y-9591300I0J-60000D01*
G01*
X10700000Y-11430000D02*
G75*
G02*
X10600000Y-11330000I0J100000D01*
G01*
X21730997Y-9671003D02*
G75*
G02*
X21770997Y-9711003I3J-39997D01*
G01*
X22258780Y-9611300D02*
G75*
G02*
X22198780Y-9671300I-60000J0D01*
G01*
X11900000Y-11430000D02*
X10700000Y-11430000D01*
X22318780Y-9531300D02*
X23198780Y-9531300D01*
X21771000Y-9711003D02*
X21771000Y-9761000D01*
X10700000Y-9671300D02*
X17880000Y-9671300D01*
X23258780Y-10812000D02*
G75*
G02*
X23198780Y-10872000I-60000J0D01*
G01*
D11*
X10858277Y-11985284D02*
X10858277Y-11785284D01*
X10858277Y-11785284D02*
X10905896Y-11785284D01*
X10905896Y-11785284D02*
X10934467Y-11794808D01*
X10934467Y-11794808D02*
X10953515Y-11813855D01*
X10953515Y-11813855D02*
X10963039Y-11832903D01*
X10963039Y-11832903D02*
X10972563Y-11870998D01*
X10972563Y-11870998D02*
X10972563Y-11899569D01*
X10972563Y-11899569D02*
X10963039Y-11937665D01*
X10963039Y-11937665D02*
X10953515Y-11956712D01*
X10953515Y-11956712D02*
X10934467Y-11975760D01*
X10934467Y-11975760D02*
X10905896Y-11985284D01*
X10905896Y-11985284D02*
X10858277Y-11985284D01*
X11058277Y-11985284D02*
X11058277Y-11851950D01*
X11058277Y-11890046D02*
X11067801Y-11870998D01*
X11067801Y-11870998D02*
X11077324Y-11861474D01*
X11077324Y-11861474D02*
X11096372Y-11851950D01*
X11096372Y-11851950D02*
X11115420Y-11851950D01*
X11182086Y-11985284D02*
X11182086Y-11851950D01*
X11182086Y-11785284D02*
X11172563Y-11794808D01*
X11172563Y-11794808D02*
X11182086Y-11804331D01*
X11182086Y-11804331D02*
X11191610Y-11794808D01*
X11191610Y-11794808D02*
X11182086Y-11785284D01*
X11182086Y-11785284D02*
X11182086Y-11804331D01*
X11305896Y-11985284D02*
X11286848Y-11975760D01*
X11286848Y-11975760D02*
X11277324Y-11956712D01*
X11277324Y-11956712D02*
X11277324Y-11785284D01*
X11410658Y-11985284D02*
X11391610Y-11975760D01*
X11391610Y-11975760D02*
X11382086Y-11956712D01*
X11382086Y-11956712D02*
X11382086Y-11785284D01*
X11639229Y-11985284D02*
X11639229Y-11785284D01*
X11639229Y-11785284D02*
X11705896Y-11928141D01*
X11705896Y-11928141D02*
X11772562Y-11785284D01*
X11772562Y-11785284D02*
X11772562Y-11985284D01*
X11953515Y-11985284D02*
X11953515Y-11880522D01*
X11953515Y-11880522D02*
X11943991Y-11861474D01*
X11943991Y-11861474D02*
X11924943Y-11851950D01*
X11924943Y-11851950D02*
X11886848Y-11851950D01*
X11886848Y-11851950D02*
X11867801Y-11861474D01*
X11953515Y-11975760D02*
X11934467Y-11985284D01*
X11934467Y-11985284D02*
X11886848Y-11985284D01*
X11886848Y-11985284D02*
X11867801Y-11975760D01*
X11867801Y-11975760D02*
X11858277Y-11956712D01*
X11858277Y-11956712D02*
X11858277Y-11937665D01*
X11858277Y-11937665D02*
X11867801Y-11918617D01*
X11867801Y-11918617D02*
X11886848Y-11909093D01*
X11886848Y-11909093D02*
X11934467Y-11909093D01*
X11934467Y-11909093D02*
X11953515Y-11899569D01*
X12048753Y-11851950D02*
X12048753Y-12051950D01*
X12048753Y-11861474D02*
X12067801Y-11851950D01*
X12067801Y-11851950D02*
X12105896Y-11851950D01*
X12105896Y-11851950D02*
X12124943Y-11861474D01*
X12124943Y-11861474D02*
X12134467Y-11870998D01*
X12134467Y-11870998D02*
X12143991Y-11890046D01*
X12143991Y-11890046D02*
X12143991Y-11947188D01*
X12143991Y-11947188D02*
X12134467Y-11966236D01*
X12134467Y-11966236D02*
X12124943Y-11975760D01*
X12124943Y-11975760D02*
X12105896Y-11985284D01*
X12105896Y-11985284D02*
X12067801Y-11985284D01*
X12067801Y-11985284D02*
X12048753Y-11975760D01*
X12229705Y-11966236D02*
X12239229Y-11975760D01*
X12239229Y-11975760D02*
X12229705Y-11985284D01*
X12229705Y-11985284D02*
X12220182Y-11975760D01*
X12220182Y-11975760D02*
X12229705Y-11966236D01*
X12229705Y-11966236D02*
X12229705Y-11985284D01*
X12229705Y-11861474D02*
X12239229Y-11870998D01*
X12239229Y-11870998D02*
X12229705Y-11880522D01*
X12229705Y-11880522D02*
X12220182Y-11870998D01*
X12220182Y-11870998D02*
X12229705Y-11861474D01*
X12229705Y-11861474D02*
X12229705Y-11880522D01*
M02*
