G04 #@! TF.GenerationSoftware,KiCad,Pcbnew,8.0.3*
G04 #@! TF.CreationDate,2024-08-28T21:52:25+01:00*
G04 #@! TF.ProjectId,Seeed,53656565-642e-46b6-9963-61645f706362,rev?*
G04 #@! TF.SameCoordinates,Original*
G04 #@! TF.FileFunction,AssemblyDrawing,Top*
%FSLAX46Y46*%
G04 Gerber Fmt 4.6, Leading zero omitted, Abs format (unit mm)*
G04 Created by KiCad (PCBNEW 8.0.3) date 2024-08-28 21:52:25*
%MOMM*%
%LPD*%
G01*
G04 APERTURE LIST*
%ADD10C,0.150000*%
%ADD11C,0.080000*%
%ADD12C,0.100000*%
%ADD13C,0.060000*%
%ADD14C,0.350000*%
G04 APERTURE END LIST*
D10*
X119790476Y-98454819D02*
X120361904Y-98454819D01*
X120076190Y-99454819D02*
X120076190Y-98454819D01*
X120885714Y-98454819D02*
X121076190Y-98454819D01*
X121076190Y-98454819D02*
X121171428Y-98502438D01*
X121171428Y-98502438D02*
X121266666Y-98597676D01*
X121266666Y-98597676D02*
X121314285Y-98788152D01*
X121314285Y-98788152D02*
X121314285Y-99121485D01*
X121314285Y-99121485D02*
X121266666Y-99311961D01*
X121266666Y-99311961D02*
X121171428Y-99407200D01*
X121171428Y-99407200D02*
X121076190Y-99454819D01*
X121076190Y-99454819D02*
X120885714Y-99454819D01*
X120885714Y-99454819D02*
X120790476Y-99407200D01*
X120790476Y-99407200D02*
X120695238Y-99311961D01*
X120695238Y-99311961D02*
X120647619Y-99121485D01*
X120647619Y-99121485D02*
X120647619Y-98788152D01*
X120647619Y-98788152D02*
X120695238Y-98597676D01*
X120695238Y-98597676D02*
X120790476Y-98502438D01*
X120790476Y-98502438D02*
X120885714Y-98454819D01*
X121742857Y-99454819D02*
X121742857Y-98454819D01*
X121742857Y-98454819D02*
X122123809Y-98454819D01*
X122123809Y-98454819D02*
X122219047Y-98502438D01*
X122219047Y-98502438D02*
X122266666Y-98550057D01*
X122266666Y-98550057D02*
X122314285Y-98645295D01*
X122314285Y-98645295D02*
X122314285Y-98788152D01*
X122314285Y-98788152D02*
X122266666Y-98883390D01*
X122266666Y-98883390D02*
X122219047Y-98931009D01*
X122219047Y-98931009D02*
X122123809Y-98978628D01*
X122123809Y-98978628D02*
X121742857Y-98978628D01*
X140636665Y-98454819D02*
X140636665Y-99169104D01*
X140636665Y-99169104D02*
X140589046Y-99311961D01*
X140589046Y-99311961D02*
X140493808Y-99407200D01*
X140493808Y-99407200D02*
X140350951Y-99454819D01*
X140350951Y-99454819D02*
X140255713Y-99454819D01*
X141065237Y-98550057D02*
X141112856Y-98502438D01*
X141112856Y-98502438D02*
X141208094Y-98454819D01*
X141208094Y-98454819D02*
X141446189Y-98454819D01*
X141446189Y-98454819D02*
X141541427Y-98502438D01*
X141541427Y-98502438D02*
X141589046Y-98550057D01*
X141589046Y-98550057D02*
X141636665Y-98645295D01*
X141636665Y-98645295D02*
X141636665Y-98740533D01*
X141636665Y-98740533D02*
X141589046Y-98883390D01*
X141589046Y-98883390D02*
X141017618Y-99454819D01*
X141017618Y-99454819D02*
X141636665Y-99454819D01*
X104417200Y-110973808D02*
X104464819Y-110830951D01*
X104464819Y-110830951D02*
X104464819Y-110592856D01*
X104464819Y-110592856D02*
X104417200Y-110497618D01*
X104417200Y-110497618D02*
X104369580Y-110449999D01*
X104369580Y-110449999D02*
X104274342Y-110402380D01*
X104274342Y-110402380D02*
X104179104Y-110402380D01*
X104179104Y-110402380D02*
X104083866Y-110449999D01*
X104083866Y-110449999D02*
X104036247Y-110497618D01*
X104036247Y-110497618D02*
X103988628Y-110592856D01*
X103988628Y-110592856D02*
X103941009Y-110783332D01*
X103941009Y-110783332D02*
X103893390Y-110878570D01*
X103893390Y-110878570D02*
X103845771Y-110926189D01*
X103845771Y-110926189D02*
X103750533Y-110973808D01*
X103750533Y-110973808D02*
X103655295Y-110973808D01*
X103655295Y-110973808D02*
X103560057Y-110926189D01*
X103560057Y-110926189D02*
X103512438Y-110878570D01*
X103512438Y-110878570D02*
X103464819Y-110783332D01*
X103464819Y-110783332D02*
X103464819Y-110545237D01*
X103464819Y-110545237D02*
X103512438Y-110402380D01*
X104464819Y-109973808D02*
X103464819Y-109973808D01*
X103464819Y-109973808D02*
X103464819Y-109592856D01*
X103464819Y-109592856D02*
X103512438Y-109497618D01*
X103512438Y-109497618D02*
X103560057Y-109449999D01*
X103560057Y-109449999D02*
X103655295Y-109402380D01*
X103655295Y-109402380D02*
X103798152Y-109402380D01*
X103798152Y-109402380D02*
X103893390Y-109449999D01*
X103893390Y-109449999D02*
X103941009Y-109497618D01*
X103941009Y-109497618D02*
X103988628Y-109592856D01*
X103988628Y-109592856D02*
X103988628Y-109973808D01*
X104464819Y-108973808D02*
X103464819Y-108973808D01*
X110357200Y-110973808D02*
X110404819Y-110830951D01*
X110404819Y-110830951D02*
X110404819Y-110592856D01*
X110404819Y-110592856D02*
X110357200Y-110497618D01*
X110357200Y-110497618D02*
X110309580Y-110449999D01*
X110309580Y-110449999D02*
X110214342Y-110402380D01*
X110214342Y-110402380D02*
X110119104Y-110402380D01*
X110119104Y-110402380D02*
X110023866Y-110449999D01*
X110023866Y-110449999D02*
X109976247Y-110497618D01*
X109976247Y-110497618D02*
X109928628Y-110592856D01*
X109928628Y-110592856D02*
X109881009Y-110783332D01*
X109881009Y-110783332D02*
X109833390Y-110878570D01*
X109833390Y-110878570D02*
X109785771Y-110926189D01*
X109785771Y-110926189D02*
X109690533Y-110973808D01*
X109690533Y-110973808D02*
X109595295Y-110973808D01*
X109595295Y-110973808D02*
X109500057Y-110926189D01*
X109500057Y-110926189D02*
X109452438Y-110878570D01*
X109452438Y-110878570D02*
X109404819Y-110783332D01*
X109404819Y-110783332D02*
X109404819Y-110545237D01*
X109404819Y-110545237D02*
X109452438Y-110402380D01*
X110404819Y-109973808D02*
X109404819Y-109973808D01*
X109404819Y-109973808D02*
X109404819Y-109592856D01*
X109404819Y-109592856D02*
X109452438Y-109497618D01*
X109452438Y-109497618D02*
X109500057Y-109449999D01*
X109500057Y-109449999D02*
X109595295Y-109402380D01*
X109595295Y-109402380D02*
X109738152Y-109402380D01*
X109738152Y-109402380D02*
X109833390Y-109449999D01*
X109833390Y-109449999D02*
X109881009Y-109497618D01*
X109881009Y-109497618D02*
X109928628Y-109592856D01*
X109928628Y-109592856D02*
X109928628Y-109973808D01*
X110404819Y-108973808D02*
X109404819Y-108973808D01*
X103991009Y-102666666D02*
X103991009Y-102333333D01*
X104514819Y-102190476D02*
X104514819Y-102666666D01*
X104514819Y-102666666D02*
X103514819Y-102666666D01*
X103514819Y-102666666D02*
X103514819Y-102190476D01*
X104419580Y-101190476D02*
X104467200Y-101238095D01*
X104467200Y-101238095D02*
X104514819Y-101380952D01*
X104514819Y-101380952D02*
X104514819Y-101476190D01*
X104514819Y-101476190D02*
X104467200Y-101619047D01*
X104467200Y-101619047D02*
X104371961Y-101714285D01*
X104371961Y-101714285D02*
X104276723Y-101761904D01*
X104276723Y-101761904D02*
X104086247Y-101809523D01*
X104086247Y-101809523D02*
X103943390Y-101809523D01*
X103943390Y-101809523D02*
X103752914Y-101761904D01*
X103752914Y-101761904D02*
X103657676Y-101714285D01*
X103657676Y-101714285D02*
X103562438Y-101619047D01*
X103562438Y-101619047D02*
X103514819Y-101476190D01*
X103514819Y-101476190D02*
X103514819Y-101380952D01*
X103514819Y-101380952D02*
X103562438Y-101238095D01*
X103562438Y-101238095D02*
X103610057Y-101190476D01*
X104514819Y-100238095D02*
X104514819Y-100809523D01*
X104514819Y-100523809D02*
X103514819Y-100523809D01*
X103514819Y-100523809D02*
X103657676Y-100619047D01*
X103657676Y-100619047D02*
X103752914Y-100714285D01*
X103752914Y-100714285D02*
X103800533Y-100809523D01*
X104514819Y-99285714D02*
X104514819Y-99857142D01*
X104514819Y-99571428D02*
X103514819Y-99571428D01*
X103514819Y-99571428D02*
X103657676Y-99666666D01*
X103657676Y-99666666D02*
X103752914Y-99761904D01*
X103752914Y-99761904D02*
X103800533Y-99857142D01*
X109931009Y-102666666D02*
X109931009Y-102333333D01*
X110454819Y-102190476D02*
X110454819Y-102666666D01*
X110454819Y-102666666D02*
X109454819Y-102666666D01*
X109454819Y-102666666D02*
X109454819Y-102190476D01*
X110359580Y-101190476D02*
X110407200Y-101238095D01*
X110407200Y-101238095D02*
X110454819Y-101380952D01*
X110454819Y-101380952D02*
X110454819Y-101476190D01*
X110454819Y-101476190D02*
X110407200Y-101619047D01*
X110407200Y-101619047D02*
X110311961Y-101714285D01*
X110311961Y-101714285D02*
X110216723Y-101761904D01*
X110216723Y-101761904D02*
X110026247Y-101809523D01*
X110026247Y-101809523D02*
X109883390Y-101809523D01*
X109883390Y-101809523D02*
X109692914Y-101761904D01*
X109692914Y-101761904D02*
X109597676Y-101714285D01*
X109597676Y-101714285D02*
X109502438Y-101619047D01*
X109502438Y-101619047D02*
X109454819Y-101476190D01*
X109454819Y-101476190D02*
X109454819Y-101380952D01*
X109454819Y-101380952D02*
X109502438Y-101238095D01*
X109502438Y-101238095D02*
X109550057Y-101190476D01*
X110454819Y-100238095D02*
X110454819Y-100809523D01*
X110454819Y-100523809D02*
X109454819Y-100523809D01*
X109454819Y-100523809D02*
X109597676Y-100619047D01*
X109597676Y-100619047D02*
X109692914Y-100714285D01*
X109692914Y-100714285D02*
X109740533Y-100809523D01*
X110454819Y-99285714D02*
X110454819Y-99857142D01*
X110454819Y-99571428D02*
X109454819Y-99571428D01*
X109454819Y-99571428D02*
X109597676Y-99666666D01*
X109597676Y-99666666D02*
X109692914Y-99761904D01*
X109692914Y-99761904D02*
X109740533Y-99857142D01*
X225451009Y-112868095D02*
X225498628Y-112725238D01*
X225498628Y-112725238D02*
X225546247Y-112677619D01*
X225546247Y-112677619D02*
X225641485Y-112630000D01*
X225641485Y-112630000D02*
X225784342Y-112630000D01*
X225784342Y-112630000D02*
X225879580Y-112677619D01*
X225879580Y-112677619D02*
X225927200Y-112725238D01*
X225927200Y-112725238D02*
X225974819Y-112820476D01*
X225974819Y-112820476D02*
X225974819Y-113201428D01*
X225974819Y-113201428D02*
X224974819Y-113201428D01*
X224974819Y-113201428D02*
X224974819Y-112868095D01*
X224974819Y-112868095D02*
X225022438Y-112772857D01*
X225022438Y-112772857D02*
X225070057Y-112725238D01*
X225070057Y-112725238D02*
X225165295Y-112677619D01*
X225165295Y-112677619D02*
X225260533Y-112677619D01*
X225260533Y-112677619D02*
X225355771Y-112725238D01*
X225355771Y-112725238D02*
X225403390Y-112772857D01*
X225403390Y-112772857D02*
X225451009Y-112868095D01*
X225451009Y-112868095D02*
X225451009Y-113201428D01*
X225689104Y-112249047D02*
X225689104Y-111772857D01*
X225974819Y-112344285D02*
X224974819Y-112010952D01*
X224974819Y-112010952D02*
X225974819Y-111677619D01*
X224974819Y-111487142D02*
X224974819Y-110915714D01*
X225974819Y-111201428D02*
X224974819Y-111201428D01*
X220974819Y-112463333D02*
X221689104Y-112463333D01*
X221689104Y-112463333D02*
X221831961Y-112510952D01*
X221831961Y-112510952D02*
X221927200Y-112606190D01*
X221927200Y-112606190D02*
X221974819Y-112749047D01*
X221974819Y-112749047D02*
X221974819Y-112844285D01*
X221308152Y-111558571D02*
X221974819Y-111558571D01*
X220927200Y-111796666D02*
X221641485Y-112034761D01*
X221641485Y-112034761D02*
X221641485Y-111415714D01*
X146724761Y-103910019D02*
X146153333Y-103910019D01*
X146439047Y-103910019D02*
X146439047Y-102910019D01*
X146439047Y-102910019D02*
X146343809Y-103052876D01*
X146343809Y-103052876D02*
X146248571Y-103148114D01*
X146248571Y-103148114D02*
X146153333Y-103195733D01*
X147343809Y-102910019D02*
X147439047Y-102910019D01*
X147439047Y-102910019D02*
X147534285Y-102957638D01*
X147534285Y-102957638D02*
X147581904Y-103005257D01*
X147581904Y-103005257D02*
X147629523Y-103100495D01*
X147629523Y-103100495D02*
X147677142Y-103290971D01*
X147677142Y-103290971D02*
X147677142Y-103529066D01*
X147677142Y-103529066D02*
X147629523Y-103719542D01*
X147629523Y-103719542D02*
X147581904Y-103814780D01*
X147581904Y-103814780D02*
X147534285Y-103862400D01*
X147534285Y-103862400D02*
X147439047Y-103910019D01*
X147439047Y-103910019D02*
X147343809Y-103910019D01*
X147343809Y-103910019D02*
X147248571Y-103862400D01*
X147248571Y-103862400D02*
X147200952Y-103814780D01*
X147200952Y-103814780D02*
X147153333Y-103719542D01*
X147153333Y-103719542D02*
X147105714Y-103529066D01*
X147105714Y-103529066D02*
X147105714Y-103290971D01*
X147105714Y-103290971D02*
X147153333Y-103100495D01*
X147153333Y-103100495D02*
X147200952Y-103005257D01*
X147200952Y-103005257D02*
X147248571Y-102957638D01*
X147248571Y-102957638D02*
X147343809Y-102910019D01*
X148105714Y-103910019D02*
X148105714Y-102910019D01*
X148200952Y-103529066D02*
X148486666Y-103910019D01*
X148486666Y-103243352D02*
X148105714Y-103624304D01*
D11*
X147236666Y-105332349D02*
X147070000Y-105094254D01*
X146950952Y-105332349D02*
X146950952Y-104832349D01*
X146950952Y-104832349D02*
X147141428Y-104832349D01*
X147141428Y-104832349D02*
X147189047Y-104856159D01*
X147189047Y-104856159D02*
X147212857Y-104879968D01*
X147212857Y-104879968D02*
X147236666Y-104927587D01*
X147236666Y-104927587D02*
X147236666Y-104999016D01*
X147236666Y-104999016D02*
X147212857Y-105046635D01*
X147212857Y-105046635D02*
X147189047Y-105070444D01*
X147189047Y-105070444D02*
X147141428Y-105094254D01*
X147141428Y-105094254D02*
X146950952Y-105094254D01*
X147427143Y-104879968D02*
X147450952Y-104856159D01*
X147450952Y-104856159D02*
X147498571Y-104832349D01*
X147498571Y-104832349D02*
X147617619Y-104832349D01*
X147617619Y-104832349D02*
X147665238Y-104856159D01*
X147665238Y-104856159D02*
X147689047Y-104879968D01*
X147689047Y-104879968D02*
X147712857Y-104927587D01*
X147712857Y-104927587D02*
X147712857Y-104975206D01*
X147712857Y-104975206D02*
X147689047Y-105046635D01*
X147689047Y-105046635D02*
X147403333Y-105332349D01*
X147403333Y-105332349D02*
X147712857Y-105332349D01*
D10*
X222709047Y-98674819D02*
X222232857Y-98674819D01*
X222232857Y-98674819D02*
X222185238Y-99151009D01*
X222185238Y-99151009D02*
X222232857Y-99103390D01*
X222232857Y-99103390D02*
X222328095Y-99055771D01*
X222328095Y-99055771D02*
X222566190Y-99055771D01*
X222566190Y-99055771D02*
X222661428Y-99103390D01*
X222661428Y-99103390D02*
X222709047Y-99151009D01*
X222709047Y-99151009D02*
X222756666Y-99246247D01*
X222756666Y-99246247D02*
X222756666Y-99484342D01*
X222756666Y-99484342D02*
X222709047Y-99579580D01*
X222709047Y-99579580D02*
X222661428Y-99627200D01*
X222661428Y-99627200D02*
X222566190Y-99674819D01*
X222566190Y-99674819D02*
X222328095Y-99674819D01*
X222328095Y-99674819D02*
X222232857Y-99627200D01*
X222232857Y-99627200D02*
X222185238Y-99579580D01*
X223185238Y-99579580D02*
X223232857Y-99627200D01*
X223232857Y-99627200D02*
X223185238Y-99674819D01*
X223185238Y-99674819D02*
X223137619Y-99627200D01*
X223137619Y-99627200D02*
X223185238Y-99579580D01*
X223185238Y-99579580D02*
X223185238Y-99674819D01*
X224185237Y-99674819D02*
X223613809Y-99674819D01*
X223899523Y-99674819D02*
X223899523Y-98674819D01*
X223899523Y-98674819D02*
X223804285Y-98817676D01*
X223804285Y-98817676D02*
X223709047Y-98912914D01*
X223709047Y-98912914D02*
X223613809Y-98960533D01*
X224613809Y-99674819D02*
X224613809Y-98674819D01*
X224709047Y-99293866D02*
X224994761Y-99674819D01*
X224994761Y-99008152D02*
X224613809Y-99389104D01*
D11*
X223506666Y-101097149D02*
X223340000Y-100859054D01*
X223220952Y-101097149D02*
X223220952Y-100597149D01*
X223220952Y-100597149D02*
X223411428Y-100597149D01*
X223411428Y-100597149D02*
X223459047Y-100620959D01*
X223459047Y-100620959D02*
X223482857Y-100644768D01*
X223482857Y-100644768D02*
X223506666Y-100692387D01*
X223506666Y-100692387D02*
X223506666Y-100763816D01*
X223506666Y-100763816D02*
X223482857Y-100811435D01*
X223482857Y-100811435D02*
X223459047Y-100835244D01*
X223459047Y-100835244D02*
X223411428Y-100859054D01*
X223411428Y-100859054D02*
X223220952Y-100859054D01*
X223959047Y-100597149D02*
X223720952Y-100597149D01*
X223720952Y-100597149D02*
X223697143Y-100835244D01*
X223697143Y-100835244D02*
X223720952Y-100811435D01*
X223720952Y-100811435D02*
X223768571Y-100787625D01*
X223768571Y-100787625D02*
X223887619Y-100787625D01*
X223887619Y-100787625D02*
X223935238Y-100811435D01*
X223935238Y-100811435D02*
X223959047Y-100835244D01*
X223959047Y-100835244D02*
X223982857Y-100882863D01*
X223982857Y-100882863D02*
X223982857Y-101001911D01*
X223982857Y-101001911D02*
X223959047Y-101049530D01*
X223959047Y-101049530D02*
X223935238Y-101073340D01*
X223935238Y-101073340D02*
X223887619Y-101097149D01*
X223887619Y-101097149D02*
X223768571Y-101097149D01*
X223768571Y-101097149D02*
X223720952Y-101073340D01*
X223720952Y-101073340D02*
X223697143Y-101049530D01*
D10*
X123432361Y-103910019D02*
X122860933Y-103910019D01*
X123146647Y-103910019D02*
X123146647Y-102910019D01*
X123146647Y-102910019D02*
X123051409Y-103052876D01*
X123051409Y-103052876D02*
X122956171Y-103148114D01*
X122956171Y-103148114D02*
X122860933Y-103195733D01*
X124051409Y-102910019D02*
X124146647Y-102910019D01*
X124146647Y-102910019D02*
X124241885Y-102957638D01*
X124241885Y-102957638D02*
X124289504Y-103005257D01*
X124289504Y-103005257D02*
X124337123Y-103100495D01*
X124337123Y-103100495D02*
X124384742Y-103290971D01*
X124384742Y-103290971D02*
X124384742Y-103529066D01*
X124384742Y-103529066D02*
X124337123Y-103719542D01*
X124337123Y-103719542D02*
X124289504Y-103814780D01*
X124289504Y-103814780D02*
X124241885Y-103862400D01*
X124241885Y-103862400D02*
X124146647Y-103910019D01*
X124146647Y-103910019D02*
X124051409Y-103910019D01*
X124051409Y-103910019D02*
X123956171Y-103862400D01*
X123956171Y-103862400D02*
X123908552Y-103814780D01*
X123908552Y-103814780D02*
X123860933Y-103719542D01*
X123860933Y-103719542D02*
X123813314Y-103529066D01*
X123813314Y-103529066D02*
X123813314Y-103290971D01*
X123813314Y-103290971D02*
X123860933Y-103100495D01*
X123860933Y-103100495D02*
X123908552Y-103005257D01*
X123908552Y-103005257D02*
X123956171Y-102957638D01*
X123956171Y-102957638D02*
X124051409Y-102910019D01*
X124813314Y-103910019D02*
X124813314Y-102910019D01*
X124908552Y-103529066D02*
X125194266Y-103910019D01*
X125194266Y-103243352D02*
X124813314Y-103624304D01*
D11*
X123944266Y-105332349D02*
X123777600Y-105094254D01*
X123658552Y-105332349D02*
X123658552Y-104832349D01*
X123658552Y-104832349D02*
X123849028Y-104832349D01*
X123849028Y-104832349D02*
X123896647Y-104856159D01*
X123896647Y-104856159D02*
X123920457Y-104879968D01*
X123920457Y-104879968D02*
X123944266Y-104927587D01*
X123944266Y-104927587D02*
X123944266Y-104999016D01*
X123944266Y-104999016D02*
X123920457Y-105046635D01*
X123920457Y-105046635D02*
X123896647Y-105070444D01*
X123896647Y-105070444D02*
X123849028Y-105094254D01*
X123849028Y-105094254D02*
X123658552Y-105094254D01*
X124372838Y-104999016D02*
X124372838Y-105332349D01*
X124253790Y-104808540D02*
X124134743Y-105165682D01*
X124134743Y-105165682D02*
X124444266Y-105165682D01*
D10*
X151218095Y-99854818D02*
X151218095Y-98854818D01*
X151218095Y-98854818D02*
X151551428Y-99569103D01*
X151551428Y-99569103D02*
X151884761Y-98854818D01*
X151884761Y-98854818D02*
X151884761Y-99854818D01*
X152932380Y-99759579D02*
X152884761Y-99807199D01*
X152884761Y-99807199D02*
X152741904Y-99854818D01*
X152741904Y-99854818D02*
X152646666Y-99854818D01*
X152646666Y-99854818D02*
X152503809Y-99807199D01*
X152503809Y-99807199D02*
X152408571Y-99711960D01*
X152408571Y-99711960D02*
X152360952Y-99616722D01*
X152360952Y-99616722D02*
X152313333Y-99426246D01*
X152313333Y-99426246D02*
X152313333Y-99283389D01*
X152313333Y-99283389D02*
X152360952Y-99092913D01*
X152360952Y-99092913D02*
X152408571Y-98997675D01*
X152408571Y-98997675D02*
X152503809Y-98902437D01*
X152503809Y-98902437D02*
X152646666Y-98854818D01*
X152646666Y-98854818D02*
X152741904Y-98854818D01*
X152741904Y-98854818D02*
X152884761Y-98902437D01*
X152884761Y-98902437D02*
X152932380Y-98950056D01*
X153360952Y-99854818D02*
X153360952Y-98854818D01*
X153360952Y-98854818D02*
X153741904Y-98854818D01*
X153741904Y-98854818D02*
X153837142Y-98902437D01*
X153837142Y-98902437D02*
X153884761Y-98950056D01*
X153884761Y-98950056D02*
X153932380Y-99045294D01*
X153932380Y-99045294D02*
X153932380Y-99188151D01*
X153932380Y-99188151D02*
X153884761Y-99283389D01*
X153884761Y-99283389D02*
X153837142Y-99331008D01*
X153837142Y-99331008D02*
X153741904Y-99378627D01*
X153741904Y-99378627D02*
X153360952Y-99378627D01*
X154313333Y-98950056D02*
X154360952Y-98902437D01*
X154360952Y-98902437D02*
X154456190Y-98854818D01*
X154456190Y-98854818D02*
X154694285Y-98854818D01*
X154694285Y-98854818D02*
X154789523Y-98902437D01*
X154789523Y-98902437D02*
X154837142Y-98950056D01*
X154837142Y-98950056D02*
X154884761Y-99045294D01*
X154884761Y-99045294D02*
X154884761Y-99140532D01*
X154884761Y-99140532D02*
X154837142Y-99283389D01*
X154837142Y-99283389D02*
X154265714Y-99854818D01*
X154265714Y-99854818D02*
X154884761Y-99854818D01*
X155218095Y-98854818D02*
X155837142Y-98854818D01*
X155837142Y-98854818D02*
X155503809Y-99235770D01*
X155503809Y-99235770D02*
X155646666Y-99235770D01*
X155646666Y-99235770D02*
X155741904Y-99283389D01*
X155741904Y-99283389D02*
X155789523Y-99331008D01*
X155789523Y-99331008D02*
X155837142Y-99426246D01*
X155837142Y-99426246D02*
X155837142Y-99664341D01*
X155837142Y-99664341D02*
X155789523Y-99759579D01*
X155789523Y-99759579D02*
X155741904Y-99807199D01*
X155741904Y-99807199D02*
X155646666Y-99854818D01*
X155646666Y-99854818D02*
X155360952Y-99854818D01*
X155360952Y-99854818D02*
X155265714Y-99807199D01*
X155265714Y-99807199D02*
X155218095Y-99759579D01*
X156456190Y-98854818D02*
X156551428Y-98854818D01*
X156551428Y-98854818D02*
X156646666Y-98902437D01*
X156646666Y-98902437D02*
X156694285Y-98950056D01*
X156694285Y-98950056D02*
X156741904Y-99045294D01*
X156741904Y-99045294D02*
X156789523Y-99235770D01*
X156789523Y-99235770D02*
X156789523Y-99473865D01*
X156789523Y-99473865D02*
X156741904Y-99664341D01*
X156741904Y-99664341D02*
X156694285Y-99759579D01*
X156694285Y-99759579D02*
X156646666Y-99807199D01*
X156646666Y-99807199D02*
X156551428Y-99854818D01*
X156551428Y-99854818D02*
X156456190Y-99854818D01*
X156456190Y-99854818D02*
X156360952Y-99807199D01*
X156360952Y-99807199D02*
X156313333Y-99759579D01*
X156313333Y-99759579D02*
X156265714Y-99664341D01*
X156265714Y-99664341D02*
X156218095Y-99473865D01*
X156218095Y-99473865D02*
X156218095Y-99235770D01*
X156218095Y-99235770D02*
X156265714Y-99045294D01*
X156265714Y-99045294D02*
X156313333Y-98950056D01*
X156313333Y-98950056D02*
X156360952Y-98902437D01*
X156360952Y-98902437D02*
X156456190Y-98854818D01*
X157741904Y-99854818D02*
X157170476Y-99854818D01*
X157456190Y-99854818D02*
X157456190Y-98854818D01*
X157456190Y-98854818D02*
X157360952Y-98997675D01*
X157360952Y-98997675D02*
X157265714Y-99092913D01*
X157265714Y-99092913D02*
X157170476Y-99140532D01*
X158075238Y-98854818D02*
X158741904Y-98854818D01*
X158741904Y-98854818D02*
X158313333Y-99854818D01*
X159122857Y-99473865D02*
X159884762Y-99473865D01*
X160360952Y-99331008D02*
X160694285Y-99331008D01*
X160837142Y-99854818D02*
X160360952Y-99854818D01*
X160360952Y-99854818D02*
X160360952Y-98854818D01*
X160360952Y-98854818D02*
X160837142Y-98854818D01*
X161979999Y-98807199D02*
X161122857Y-100092913D01*
X162265714Y-99807199D02*
X162408571Y-99854818D01*
X162408571Y-99854818D02*
X162646666Y-99854818D01*
X162646666Y-99854818D02*
X162741904Y-99807199D01*
X162741904Y-99807199D02*
X162789523Y-99759579D01*
X162789523Y-99759579D02*
X162837142Y-99664341D01*
X162837142Y-99664341D02*
X162837142Y-99569103D01*
X162837142Y-99569103D02*
X162789523Y-99473865D01*
X162789523Y-99473865D02*
X162741904Y-99426246D01*
X162741904Y-99426246D02*
X162646666Y-99378627D01*
X162646666Y-99378627D02*
X162456190Y-99331008D01*
X162456190Y-99331008D02*
X162360952Y-99283389D01*
X162360952Y-99283389D02*
X162313333Y-99235770D01*
X162313333Y-99235770D02*
X162265714Y-99140532D01*
X162265714Y-99140532D02*
X162265714Y-99045294D01*
X162265714Y-99045294D02*
X162313333Y-98950056D01*
X162313333Y-98950056D02*
X162360952Y-98902437D01*
X162360952Y-98902437D02*
X162456190Y-98854818D01*
X162456190Y-98854818D02*
X162694285Y-98854818D01*
X162694285Y-98854818D02*
X162837142Y-98902437D01*
X163218095Y-99807199D02*
X163360952Y-99854818D01*
X163360952Y-99854818D02*
X163599047Y-99854818D01*
X163599047Y-99854818D02*
X163694285Y-99807199D01*
X163694285Y-99807199D02*
X163741904Y-99759579D01*
X163741904Y-99759579D02*
X163789523Y-99664341D01*
X163789523Y-99664341D02*
X163789523Y-99569103D01*
X163789523Y-99569103D02*
X163741904Y-99473865D01*
X163741904Y-99473865D02*
X163694285Y-99426246D01*
X163694285Y-99426246D02*
X163599047Y-99378627D01*
X163599047Y-99378627D02*
X163408571Y-99331008D01*
X163408571Y-99331008D02*
X163313333Y-99283389D01*
X163313333Y-99283389D02*
X163265714Y-99235770D01*
X163265714Y-99235770D02*
X163218095Y-99140532D01*
X163218095Y-99140532D02*
X163218095Y-99045294D01*
X163218095Y-99045294D02*
X163265714Y-98950056D01*
X163265714Y-98950056D02*
X163313333Y-98902437D01*
X163313333Y-98902437D02*
X163408571Y-98854818D01*
X163408571Y-98854818D02*
X163646666Y-98854818D01*
X163646666Y-98854818D02*
X163789523Y-98902437D01*
X156718095Y-106314819D02*
X156718095Y-107124342D01*
X156718095Y-107124342D02*
X156765714Y-107219580D01*
X156765714Y-107219580D02*
X156813333Y-107267200D01*
X156813333Y-107267200D02*
X156908571Y-107314819D01*
X156908571Y-107314819D02*
X157099047Y-107314819D01*
X157099047Y-107314819D02*
X157194285Y-107267200D01*
X157194285Y-107267200D02*
X157241904Y-107219580D01*
X157241904Y-107219580D02*
X157289523Y-107124342D01*
X157289523Y-107124342D02*
X157289523Y-106314819D01*
X158289523Y-107314819D02*
X157718095Y-107314819D01*
X158003809Y-107314819D02*
X158003809Y-106314819D01*
X158003809Y-106314819D02*
X157908571Y-106457676D01*
X157908571Y-106457676D02*
X157813333Y-106552914D01*
X157813333Y-106552914D02*
X157718095Y-106600533D01*
X146724761Y-101522419D02*
X146153333Y-101522419D01*
X146439047Y-101522419D02*
X146439047Y-100522419D01*
X146439047Y-100522419D02*
X146343809Y-100665276D01*
X146343809Y-100665276D02*
X146248571Y-100760514D01*
X146248571Y-100760514D02*
X146153333Y-100808133D01*
X147343809Y-100522419D02*
X147439047Y-100522419D01*
X147439047Y-100522419D02*
X147534285Y-100570038D01*
X147534285Y-100570038D02*
X147581904Y-100617657D01*
X147581904Y-100617657D02*
X147629523Y-100712895D01*
X147629523Y-100712895D02*
X147677142Y-100903371D01*
X147677142Y-100903371D02*
X147677142Y-101141466D01*
X147677142Y-101141466D02*
X147629523Y-101331942D01*
X147629523Y-101331942D02*
X147581904Y-101427180D01*
X147581904Y-101427180D02*
X147534285Y-101474800D01*
X147534285Y-101474800D02*
X147439047Y-101522419D01*
X147439047Y-101522419D02*
X147343809Y-101522419D01*
X147343809Y-101522419D02*
X147248571Y-101474800D01*
X147248571Y-101474800D02*
X147200952Y-101427180D01*
X147200952Y-101427180D02*
X147153333Y-101331942D01*
X147153333Y-101331942D02*
X147105714Y-101141466D01*
X147105714Y-101141466D02*
X147105714Y-100903371D01*
X147105714Y-100903371D02*
X147153333Y-100712895D01*
X147153333Y-100712895D02*
X147200952Y-100617657D01*
X147200952Y-100617657D02*
X147248571Y-100570038D01*
X147248571Y-100570038D02*
X147343809Y-100522419D01*
X148105714Y-101522419D02*
X148105714Y-100522419D01*
X148200952Y-101141466D02*
X148486666Y-101522419D01*
X148486666Y-100855752D02*
X148105714Y-101236704D01*
D11*
X147236666Y-102944749D02*
X147070000Y-102706654D01*
X146950952Y-102944749D02*
X146950952Y-102444749D01*
X146950952Y-102444749D02*
X147141428Y-102444749D01*
X147141428Y-102444749D02*
X147189047Y-102468559D01*
X147189047Y-102468559D02*
X147212857Y-102492368D01*
X147212857Y-102492368D02*
X147236666Y-102539987D01*
X147236666Y-102539987D02*
X147236666Y-102611416D01*
X147236666Y-102611416D02*
X147212857Y-102659035D01*
X147212857Y-102659035D02*
X147189047Y-102682844D01*
X147189047Y-102682844D02*
X147141428Y-102706654D01*
X147141428Y-102706654D02*
X146950952Y-102706654D01*
X147712857Y-102944749D02*
X147427143Y-102944749D01*
X147570000Y-102944749D02*
X147570000Y-102444749D01*
X147570000Y-102444749D02*
X147522381Y-102516178D01*
X147522381Y-102516178D02*
X147474762Y-102563797D01*
X147474762Y-102563797D02*
X147427143Y-102587606D01*
D10*
X123432361Y-101522419D02*
X122860933Y-101522419D01*
X123146647Y-101522419D02*
X123146647Y-100522419D01*
X123146647Y-100522419D02*
X123051409Y-100665276D01*
X123051409Y-100665276D02*
X122956171Y-100760514D01*
X122956171Y-100760514D02*
X122860933Y-100808133D01*
X124051409Y-100522419D02*
X124146647Y-100522419D01*
X124146647Y-100522419D02*
X124241885Y-100570038D01*
X124241885Y-100570038D02*
X124289504Y-100617657D01*
X124289504Y-100617657D02*
X124337123Y-100712895D01*
X124337123Y-100712895D02*
X124384742Y-100903371D01*
X124384742Y-100903371D02*
X124384742Y-101141466D01*
X124384742Y-101141466D02*
X124337123Y-101331942D01*
X124337123Y-101331942D02*
X124289504Y-101427180D01*
X124289504Y-101427180D02*
X124241885Y-101474800D01*
X124241885Y-101474800D02*
X124146647Y-101522419D01*
X124146647Y-101522419D02*
X124051409Y-101522419D01*
X124051409Y-101522419D02*
X123956171Y-101474800D01*
X123956171Y-101474800D02*
X123908552Y-101427180D01*
X123908552Y-101427180D02*
X123860933Y-101331942D01*
X123860933Y-101331942D02*
X123813314Y-101141466D01*
X123813314Y-101141466D02*
X123813314Y-100903371D01*
X123813314Y-100903371D02*
X123860933Y-100712895D01*
X123860933Y-100712895D02*
X123908552Y-100617657D01*
X123908552Y-100617657D02*
X123956171Y-100570038D01*
X123956171Y-100570038D02*
X124051409Y-100522419D01*
X124813314Y-101522419D02*
X124813314Y-100522419D01*
X124908552Y-101141466D02*
X125194266Y-101522419D01*
X125194266Y-100855752D02*
X124813314Y-101236704D01*
D11*
X123944266Y-102944749D02*
X123777600Y-102706654D01*
X123658552Y-102944749D02*
X123658552Y-102444749D01*
X123658552Y-102444749D02*
X123849028Y-102444749D01*
X123849028Y-102444749D02*
X123896647Y-102468559D01*
X123896647Y-102468559D02*
X123920457Y-102492368D01*
X123920457Y-102492368D02*
X123944266Y-102539987D01*
X123944266Y-102539987D02*
X123944266Y-102611416D01*
X123944266Y-102611416D02*
X123920457Y-102659035D01*
X123920457Y-102659035D02*
X123896647Y-102682844D01*
X123896647Y-102682844D02*
X123849028Y-102706654D01*
X123849028Y-102706654D02*
X123658552Y-102706654D01*
X124110933Y-102444749D02*
X124420457Y-102444749D01*
X124420457Y-102444749D02*
X124253790Y-102635225D01*
X124253790Y-102635225D02*
X124325219Y-102635225D01*
X124325219Y-102635225D02*
X124372838Y-102659035D01*
X124372838Y-102659035D02*
X124396647Y-102682844D01*
X124396647Y-102682844D02*
X124420457Y-102730463D01*
X124420457Y-102730463D02*
X124420457Y-102849511D01*
X124420457Y-102849511D02*
X124396647Y-102897130D01*
X124396647Y-102897130D02*
X124372838Y-102920940D01*
X124372838Y-102920940D02*
X124325219Y-102944749D01*
X124325219Y-102944749D02*
X124182362Y-102944749D01*
X124182362Y-102944749D02*
X124134743Y-102920940D01*
X124134743Y-102920940D02*
X124110933Y-102897130D01*
D10*
X236474819Y-107634284D02*
X235474819Y-107634284D01*
X235474819Y-107634284D02*
X236189104Y-107300951D01*
X236189104Y-107300951D02*
X235474819Y-106967618D01*
X235474819Y-106967618D02*
X236474819Y-106967618D01*
X236474819Y-106491427D02*
X235474819Y-106491427D01*
X236474819Y-106015237D02*
X235474819Y-106015237D01*
X235474819Y-106015237D02*
X236474819Y-105443809D01*
X236474819Y-105443809D02*
X235474819Y-105443809D01*
X236474819Y-104967618D02*
X235474819Y-104967618D01*
X236474819Y-103729523D02*
X235474819Y-103729523D01*
X235474819Y-103729523D02*
X236189104Y-103396190D01*
X236189104Y-103396190D02*
X235474819Y-103062857D01*
X235474819Y-103062857D02*
X236474819Y-103062857D01*
X236427200Y-102634285D02*
X236474819Y-102491428D01*
X236474819Y-102491428D02*
X236474819Y-102253333D01*
X236474819Y-102253333D02*
X236427200Y-102158095D01*
X236427200Y-102158095D02*
X236379580Y-102110476D01*
X236379580Y-102110476D02*
X236284342Y-102062857D01*
X236284342Y-102062857D02*
X236189104Y-102062857D01*
X236189104Y-102062857D02*
X236093866Y-102110476D01*
X236093866Y-102110476D02*
X236046247Y-102158095D01*
X236046247Y-102158095D02*
X235998628Y-102253333D01*
X235998628Y-102253333D02*
X235951009Y-102443809D01*
X235951009Y-102443809D02*
X235903390Y-102539047D01*
X235903390Y-102539047D02*
X235855771Y-102586666D01*
X235855771Y-102586666D02*
X235760533Y-102634285D01*
X235760533Y-102634285D02*
X235665295Y-102634285D01*
X235665295Y-102634285D02*
X235570057Y-102586666D01*
X235570057Y-102586666D02*
X235522438Y-102539047D01*
X235522438Y-102539047D02*
X235474819Y-102443809D01*
X235474819Y-102443809D02*
X235474819Y-102205714D01*
X235474819Y-102205714D02*
X235522438Y-102062857D01*
X236474819Y-101634285D02*
X235474819Y-101634285D01*
X236474819Y-101062857D02*
X235903390Y-101491428D01*
X235474819Y-101062857D02*
X236046247Y-101634285D01*
X236474819Y-100110476D02*
X236474819Y-100681904D01*
X236474819Y-100396190D02*
X235474819Y-100396190D01*
X235474819Y-100396190D02*
X235617676Y-100491428D01*
X235617676Y-100491428D02*
X235712914Y-100586666D01*
X235712914Y-100586666D02*
X235760533Y-100681904D01*
X235570057Y-99729523D02*
X235522438Y-99681904D01*
X235522438Y-99681904D02*
X235474819Y-99586666D01*
X235474819Y-99586666D02*
X235474819Y-99348571D01*
X235474819Y-99348571D02*
X235522438Y-99253333D01*
X235522438Y-99253333D02*
X235570057Y-99205714D01*
X235570057Y-99205714D02*
X235665295Y-99158095D01*
X235665295Y-99158095D02*
X235760533Y-99158095D01*
X235760533Y-99158095D02*
X235903390Y-99205714D01*
X235903390Y-99205714D02*
X236474819Y-99777142D01*
X236474819Y-99777142D02*
X236474819Y-99158095D01*
X236379580Y-98158095D02*
X236427200Y-98205714D01*
X236427200Y-98205714D02*
X236474819Y-98348571D01*
X236474819Y-98348571D02*
X236474819Y-98443809D01*
X236474819Y-98443809D02*
X236427200Y-98586666D01*
X236427200Y-98586666D02*
X236331961Y-98681904D01*
X236331961Y-98681904D02*
X236236723Y-98729523D01*
X236236723Y-98729523D02*
X236046247Y-98777142D01*
X236046247Y-98777142D02*
X235903390Y-98777142D01*
X235903390Y-98777142D02*
X235712914Y-98729523D01*
X235712914Y-98729523D02*
X235617676Y-98681904D01*
X235617676Y-98681904D02*
X235522438Y-98586666D01*
X235522438Y-98586666D02*
X235474819Y-98443809D01*
X235474819Y-98443809D02*
X235474819Y-98348571D01*
X235474819Y-98348571D02*
X235522438Y-98205714D01*
X235522438Y-98205714D02*
X235570057Y-98158095D01*
X235474819Y-97539047D02*
X235474819Y-97348571D01*
X235474819Y-97348571D02*
X235522438Y-97253333D01*
X235522438Y-97253333D02*
X235617676Y-97158095D01*
X235617676Y-97158095D02*
X235808152Y-97110476D01*
X235808152Y-97110476D02*
X236141485Y-97110476D01*
X236141485Y-97110476D02*
X236331961Y-97158095D01*
X236331961Y-97158095D02*
X236427200Y-97253333D01*
X236427200Y-97253333D02*
X236474819Y-97348571D01*
X236474819Y-97348571D02*
X236474819Y-97539047D01*
X236474819Y-97539047D02*
X236427200Y-97634285D01*
X236427200Y-97634285D02*
X236331961Y-97729523D01*
X236331961Y-97729523D02*
X236141485Y-97777142D01*
X236141485Y-97777142D02*
X235808152Y-97777142D01*
X235808152Y-97777142D02*
X235617676Y-97729523D01*
X235617676Y-97729523D02*
X235522438Y-97634285D01*
X235522438Y-97634285D02*
X235474819Y-97539047D01*
X235570057Y-96729523D02*
X235522438Y-96681904D01*
X235522438Y-96681904D02*
X235474819Y-96586666D01*
X235474819Y-96586666D02*
X235474819Y-96348571D01*
X235474819Y-96348571D02*
X235522438Y-96253333D01*
X235522438Y-96253333D02*
X235570057Y-96205714D01*
X235570057Y-96205714D02*
X235665295Y-96158095D01*
X235665295Y-96158095D02*
X235760533Y-96158095D01*
X235760533Y-96158095D02*
X235903390Y-96205714D01*
X235903390Y-96205714D02*
X236474819Y-96777142D01*
X236474819Y-96777142D02*
X236474819Y-96158095D01*
X230977200Y-103253332D02*
X231024819Y-103110475D01*
X231024819Y-103110475D02*
X231024819Y-102872380D01*
X231024819Y-102872380D02*
X230977200Y-102777142D01*
X230977200Y-102777142D02*
X230929580Y-102729523D01*
X230929580Y-102729523D02*
X230834342Y-102681904D01*
X230834342Y-102681904D02*
X230739104Y-102681904D01*
X230739104Y-102681904D02*
X230643866Y-102729523D01*
X230643866Y-102729523D02*
X230596247Y-102777142D01*
X230596247Y-102777142D02*
X230548628Y-102872380D01*
X230548628Y-102872380D02*
X230501009Y-103062856D01*
X230501009Y-103062856D02*
X230453390Y-103158094D01*
X230453390Y-103158094D02*
X230405771Y-103205713D01*
X230405771Y-103205713D02*
X230310533Y-103253332D01*
X230310533Y-103253332D02*
X230215295Y-103253332D01*
X230215295Y-103253332D02*
X230120057Y-103205713D01*
X230120057Y-103205713D02*
X230072438Y-103158094D01*
X230072438Y-103158094D02*
X230024819Y-103062856D01*
X230024819Y-103062856D02*
X230024819Y-102824761D01*
X230024819Y-102824761D02*
X230072438Y-102681904D01*
X230024819Y-102348570D02*
X231024819Y-102110475D01*
X231024819Y-102110475D02*
X230310533Y-101919999D01*
X230310533Y-101919999D02*
X231024819Y-101729523D01*
X231024819Y-101729523D02*
X230024819Y-101491428D01*
X231024819Y-100586666D02*
X231024819Y-101158094D01*
X231024819Y-100872380D02*
X230024819Y-100872380D01*
X230024819Y-100872380D02*
X230167676Y-100967618D01*
X230167676Y-100967618D02*
X230262914Y-101062856D01*
X230262914Y-101062856D02*
X230310533Y-101158094D01*
X209564819Y-100138570D02*
X209564819Y-99519523D01*
X209564819Y-99519523D02*
X209945771Y-99852856D01*
X209945771Y-99852856D02*
X209945771Y-99709999D01*
X209945771Y-99709999D02*
X209993390Y-99614761D01*
X209993390Y-99614761D02*
X210041009Y-99567142D01*
X210041009Y-99567142D02*
X210136247Y-99519523D01*
X210136247Y-99519523D02*
X210374342Y-99519523D01*
X210374342Y-99519523D02*
X210469580Y-99567142D01*
X210469580Y-99567142D02*
X210517200Y-99614761D01*
X210517200Y-99614761D02*
X210564819Y-99709999D01*
X210564819Y-99709999D02*
X210564819Y-99995713D01*
X210564819Y-99995713D02*
X210517200Y-100090951D01*
X210517200Y-100090951D02*
X210469580Y-100138570D01*
X210469580Y-99090951D02*
X210517200Y-99043332D01*
X210517200Y-99043332D02*
X210564819Y-99090951D01*
X210564819Y-99090951D02*
X210517200Y-99138570D01*
X210517200Y-99138570D02*
X210469580Y-99090951D01*
X210469580Y-99090951D02*
X210564819Y-99090951D01*
X209564819Y-98709999D02*
X209564819Y-98090952D01*
X209564819Y-98090952D02*
X209945771Y-98424285D01*
X209945771Y-98424285D02*
X209945771Y-98281428D01*
X209945771Y-98281428D02*
X209993390Y-98186190D01*
X209993390Y-98186190D02*
X210041009Y-98138571D01*
X210041009Y-98138571D02*
X210136247Y-98090952D01*
X210136247Y-98090952D02*
X210374342Y-98090952D01*
X210374342Y-98090952D02*
X210469580Y-98138571D01*
X210469580Y-98138571D02*
X210517200Y-98186190D01*
X210517200Y-98186190D02*
X210564819Y-98281428D01*
X210564819Y-98281428D02*
X210564819Y-98567142D01*
X210564819Y-98567142D02*
X210517200Y-98662380D01*
X210517200Y-98662380D02*
X210469580Y-98709999D01*
X209898152Y-97757618D02*
X210564819Y-97519523D01*
X210564819Y-97519523D02*
X209898152Y-97281428D01*
X204614819Y-99662380D02*
X205614819Y-99329047D01*
X205614819Y-99329047D02*
X204614819Y-98995714D01*
X205233866Y-98662380D02*
X205233866Y-97900476D01*
X205614819Y-98281428D02*
X204852914Y-98281428D01*
X122290476Y-114231009D02*
X122433333Y-114278628D01*
X122433333Y-114278628D02*
X122480952Y-114326247D01*
X122480952Y-114326247D02*
X122528571Y-114421485D01*
X122528571Y-114421485D02*
X122528571Y-114564342D01*
X122528571Y-114564342D02*
X122480952Y-114659580D01*
X122480952Y-114659580D02*
X122433333Y-114707200D01*
X122433333Y-114707200D02*
X122338095Y-114754819D01*
X122338095Y-114754819D02*
X121957143Y-114754819D01*
X121957143Y-114754819D02*
X121957143Y-113754819D01*
X121957143Y-113754819D02*
X122290476Y-113754819D01*
X122290476Y-113754819D02*
X122385714Y-113802438D01*
X122385714Y-113802438D02*
X122433333Y-113850057D01*
X122433333Y-113850057D02*
X122480952Y-113945295D01*
X122480952Y-113945295D02*
X122480952Y-114040533D01*
X122480952Y-114040533D02*
X122433333Y-114135771D01*
X122433333Y-114135771D02*
X122385714Y-114183390D01*
X122385714Y-114183390D02*
X122290476Y-114231009D01*
X122290476Y-114231009D02*
X121957143Y-114231009D01*
X123147619Y-113754819D02*
X123338095Y-113754819D01*
X123338095Y-113754819D02*
X123433333Y-113802438D01*
X123433333Y-113802438D02*
X123528571Y-113897676D01*
X123528571Y-113897676D02*
X123576190Y-114088152D01*
X123576190Y-114088152D02*
X123576190Y-114421485D01*
X123576190Y-114421485D02*
X123528571Y-114611961D01*
X123528571Y-114611961D02*
X123433333Y-114707200D01*
X123433333Y-114707200D02*
X123338095Y-114754819D01*
X123338095Y-114754819D02*
X123147619Y-114754819D01*
X123147619Y-114754819D02*
X123052381Y-114707200D01*
X123052381Y-114707200D02*
X122957143Y-114611961D01*
X122957143Y-114611961D02*
X122909524Y-114421485D01*
X122909524Y-114421485D02*
X122909524Y-114088152D01*
X122909524Y-114088152D02*
X122957143Y-113897676D01*
X122957143Y-113897676D02*
X123052381Y-113802438D01*
X123052381Y-113802438D02*
X123147619Y-113754819D01*
X123861905Y-113754819D02*
X124433333Y-113754819D01*
X124147619Y-114754819D02*
X124147619Y-113754819D01*
X124623810Y-113754819D02*
X125195238Y-113754819D01*
X124909524Y-114754819D02*
X124909524Y-113754819D01*
X125719048Y-113754819D02*
X125909524Y-113754819D01*
X125909524Y-113754819D02*
X126004762Y-113802438D01*
X126004762Y-113802438D02*
X126100000Y-113897676D01*
X126100000Y-113897676D02*
X126147619Y-114088152D01*
X126147619Y-114088152D02*
X126147619Y-114421485D01*
X126147619Y-114421485D02*
X126100000Y-114611961D01*
X126100000Y-114611961D02*
X126004762Y-114707200D01*
X126004762Y-114707200D02*
X125909524Y-114754819D01*
X125909524Y-114754819D02*
X125719048Y-114754819D01*
X125719048Y-114754819D02*
X125623810Y-114707200D01*
X125623810Y-114707200D02*
X125528572Y-114611961D01*
X125528572Y-114611961D02*
X125480953Y-114421485D01*
X125480953Y-114421485D02*
X125480953Y-114088152D01*
X125480953Y-114088152D02*
X125528572Y-113897676D01*
X125528572Y-113897676D02*
X125623810Y-113802438D01*
X125623810Y-113802438D02*
X125719048Y-113754819D01*
X126576191Y-114754819D02*
X126576191Y-113754819D01*
X126576191Y-113754819D02*
X126909524Y-114469104D01*
X126909524Y-114469104D02*
X127242857Y-113754819D01*
X127242857Y-113754819D02*
X127242857Y-114754819D01*
X140636665Y-113754819D02*
X140636665Y-114469104D01*
X140636665Y-114469104D02*
X140589046Y-114611961D01*
X140589046Y-114611961D02*
X140493808Y-114707200D01*
X140493808Y-114707200D02*
X140350951Y-114754819D01*
X140350951Y-114754819D02*
X140255713Y-114754819D01*
X141017618Y-113754819D02*
X141636665Y-113754819D01*
X141636665Y-113754819D02*
X141303332Y-114135771D01*
X141303332Y-114135771D02*
X141446189Y-114135771D01*
X141446189Y-114135771D02*
X141541427Y-114183390D01*
X141541427Y-114183390D02*
X141589046Y-114231009D01*
X141589046Y-114231009D02*
X141636665Y-114326247D01*
X141636665Y-114326247D02*
X141636665Y-114564342D01*
X141636665Y-114564342D02*
X141589046Y-114659580D01*
X141589046Y-114659580D02*
X141541427Y-114707200D01*
X141541427Y-114707200D02*
X141446189Y-114754819D01*
X141446189Y-114754819D02*
X141160475Y-114754819D01*
X141160475Y-114754819D02*
X141065237Y-114707200D01*
X141065237Y-114707200D02*
X141017618Y-114659580D01*
X222709047Y-99894819D02*
X222232857Y-99894819D01*
X222232857Y-99894819D02*
X222185238Y-100371009D01*
X222185238Y-100371009D02*
X222232857Y-100323390D01*
X222232857Y-100323390D02*
X222328095Y-100275771D01*
X222328095Y-100275771D02*
X222566190Y-100275771D01*
X222566190Y-100275771D02*
X222661428Y-100323390D01*
X222661428Y-100323390D02*
X222709047Y-100371009D01*
X222709047Y-100371009D02*
X222756666Y-100466247D01*
X222756666Y-100466247D02*
X222756666Y-100704342D01*
X222756666Y-100704342D02*
X222709047Y-100799580D01*
X222709047Y-100799580D02*
X222661428Y-100847200D01*
X222661428Y-100847200D02*
X222566190Y-100894819D01*
X222566190Y-100894819D02*
X222328095Y-100894819D01*
X222328095Y-100894819D02*
X222232857Y-100847200D01*
X222232857Y-100847200D02*
X222185238Y-100799580D01*
X223185238Y-100799580D02*
X223232857Y-100847200D01*
X223232857Y-100847200D02*
X223185238Y-100894819D01*
X223185238Y-100894819D02*
X223137619Y-100847200D01*
X223137619Y-100847200D02*
X223185238Y-100799580D01*
X223185238Y-100799580D02*
X223185238Y-100894819D01*
X224185237Y-100894819D02*
X223613809Y-100894819D01*
X223899523Y-100894819D02*
X223899523Y-99894819D01*
X223899523Y-99894819D02*
X223804285Y-100037676D01*
X223804285Y-100037676D02*
X223709047Y-100132914D01*
X223709047Y-100132914D02*
X223613809Y-100180533D01*
X224613809Y-100894819D02*
X224613809Y-99894819D01*
X224709047Y-100513866D02*
X224994761Y-100894819D01*
X224994761Y-100228152D02*
X224613809Y-100609104D01*
D11*
X223506666Y-99017149D02*
X223340000Y-98779054D01*
X223220952Y-99017149D02*
X223220952Y-98517149D01*
X223220952Y-98517149D02*
X223411428Y-98517149D01*
X223411428Y-98517149D02*
X223459047Y-98540959D01*
X223459047Y-98540959D02*
X223482857Y-98564768D01*
X223482857Y-98564768D02*
X223506666Y-98612387D01*
X223506666Y-98612387D02*
X223506666Y-98683816D01*
X223506666Y-98683816D02*
X223482857Y-98731435D01*
X223482857Y-98731435D02*
X223459047Y-98755244D01*
X223459047Y-98755244D02*
X223411428Y-98779054D01*
X223411428Y-98779054D02*
X223220952Y-98779054D01*
X223935238Y-98517149D02*
X223840000Y-98517149D01*
X223840000Y-98517149D02*
X223792381Y-98540959D01*
X223792381Y-98540959D02*
X223768571Y-98564768D01*
X223768571Y-98564768D02*
X223720952Y-98636197D01*
X223720952Y-98636197D02*
X223697143Y-98731435D01*
X223697143Y-98731435D02*
X223697143Y-98921911D01*
X223697143Y-98921911D02*
X223720952Y-98969530D01*
X223720952Y-98969530D02*
X223744762Y-98993340D01*
X223744762Y-98993340D02*
X223792381Y-99017149D01*
X223792381Y-99017149D02*
X223887619Y-99017149D01*
X223887619Y-99017149D02*
X223935238Y-98993340D01*
X223935238Y-98993340D02*
X223959047Y-98969530D01*
X223959047Y-98969530D02*
X223982857Y-98921911D01*
X223982857Y-98921911D02*
X223982857Y-98802863D01*
X223982857Y-98802863D02*
X223959047Y-98755244D01*
X223959047Y-98755244D02*
X223935238Y-98731435D01*
X223935238Y-98731435D02*
X223887619Y-98707625D01*
X223887619Y-98707625D02*
X223792381Y-98707625D01*
X223792381Y-98707625D02*
X223744762Y-98731435D01*
X223744762Y-98731435D02*
X223720952Y-98755244D01*
X223720952Y-98755244D02*
X223697143Y-98802863D01*
D10*
X129208095Y-99914818D02*
X129208095Y-98914818D01*
X129208095Y-98914818D02*
X129541428Y-99629103D01*
X129541428Y-99629103D02*
X129874761Y-98914818D01*
X129874761Y-98914818D02*
X129874761Y-99914818D01*
X130922380Y-99819579D02*
X130874761Y-99867199D01*
X130874761Y-99867199D02*
X130731904Y-99914818D01*
X130731904Y-99914818D02*
X130636666Y-99914818D01*
X130636666Y-99914818D02*
X130493809Y-99867199D01*
X130493809Y-99867199D02*
X130398571Y-99771960D01*
X130398571Y-99771960D02*
X130350952Y-99676722D01*
X130350952Y-99676722D02*
X130303333Y-99486246D01*
X130303333Y-99486246D02*
X130303333Y-99343389D01*
X130303333Y-99343389D02*
X130350952Y-99152913D01*
X130350952Y-99152913D02*
X130398571Y-99057675D01*
X130398571Y-99057675D02*
X130493809Y-98962437D01*
X130493809Y-98962437D02*
X130636666Y-98914818D01*
X130636666Y-98914818D02*
X130731904Y-98914818D01*
X130731904Y-98914818D02*
X130874761Y-98962437D01*
X130874761Y-98962437D02*
X130922380Y-99010056D01*
X131350952Y-99914818D02*
X131350952Y-98914818D01*
X131350952Y-98914818D02*
X131731904Y-98914818D01*
X131731904Y-98914818D02*
X131827142Y-98962437D01*
X131827142Y-98962437D02*
X131874761Y-99010056D01*
X131874761Y-99010056D02*
X131922380Y-99105294D01*
X131922380Y-99105294D02*
X131922380Y-99248151D01*
X131922380Y-99248151D02*
X131874761Y-99343389D01*
X131874761Y-99343389D02*
X131827142Y-99391008D01*
X131827142Y-99391008D02*
X131731904Y-99438627D01*
X131731904Y-99438627D02*
X131350952Y-99438627D01*
X132303333Y-99010056D02*
X132350952Y-98962437D01*
X132350952Y-98962437D02*
X132446190Y-98914818D01*
X132446190Y-98914818D02*
X132684285Y-98914818D01*
X132684285Y-98914818D02*
X132779523Y-98962437D01*
X132779523Y-98962437D02*
X132827142Y-99010056D01*
X132827142Y-99010056D02*
X132874761Y-99105294D01*
X132874761Y-99105294D02*
X132874761Y-99200532D01*
X132874761Y-99200532D02*
X132827142Y-99343389D01*
X132827142Y-99343389D02*
X132255714Y-99914818D01*
X132255714Y-99914818D02*
X132874761Y-99914818D01*
X133208095Y-98914818D02*
X133827142Y-98914818D01*
X133827142Y-98914818D02*
X133493809Y-99295770D01*
X133493809Y-99295770D02*
X133636666Y-99295770D01*
X133636666Y-99295770D02*
X133731904Y-99343389D01*
X133731904Y-99343389D02*
X133779523Y-99391008D01*
X133779523Y-99391008D02*
X133827142Y-99486246D01*
X133827142Y-99486246D02*
X133827142Y-99724341D01*
X133827142Y-99724341D02*
X133779523Y-99819579D01*
X133779523Y-99819579D02*
X133731904Y-99867199D01*
X133731904Y-99867199D02*
X133636666Y-99914818D01*
X133636666Y-99914818D02*
X133350952Y-99914818D01*
X133350952Y-99914818D02*
X133255714Y-99867199D01*
X133255714Y-99867199D02*
X133208095Y-99819579D01*
X134446190Y-98914818D02*
X134541428Y-98914818D01*
X134541428Y-98914818D02*
X134636666Y-98962437D01*
X134636666Y-98962437D02*
X134684285Y-99010056D01*
X134684285Y-99010056D02*
X134731904Y-99105294D01*
X134731904Y-99105294D02*
X134779523Y-99295770D01*
X134779523Y-99295770D02*
X134779523Y-99533865D01*
X134779523Y-99533865D02*
X134731904Y-99724341D01*
X134731904Y-99724341D02*
X134684285Y-99819579D01*
X134684285Y-99819579D02*
X134636666Y-99867199D01*
X134636666Y-99867199D02*
X134541428Y-99914818D01*
X134541428Y-99914818D02*
X134446190Y-99914818D01*
X134446190Y-99914818D02*
X134350952Y-99867199D01*
X134350952Y-99867199D02*
X134303333Y-99819579D01*
X134303333Y-99819579D02*
X134255714Y-99724341D01*
X134255714Y-99724341D02*
X134208095Y-99533865D01*
X134208095Y-99533865D02*
X134208095Y-99295770D01*
X134208095Y-99295770D02*
X134255714Y-99105294D01*
X134255714Y-99105294D02*
X134303333Y-99010056D01*
X134303333Y-99010056D02*
X134350952Y-98962437D01*
X134350952Y-98962437D02*
X134446190Y-98914818D01*
X135731904Y-99914818D02*
X135160476Y-99914818D01*
X135446190Y-99914818D02*
X135446190Y-98914818D01*
X135446190Y-98914818D02*
X135350952Y-99057675D01*
X135350952Y-99057675D02*
X135255714Y-99152913D01*
X135255714Y-99152913D02*
X135160476Y-99200532D01*
X136065238Y-98914818D02*
X136731904Y-98914818D01*
X136731904Y-98914818D02*
X136303333Y-99914818D01*
X137112857Y-99533865D02*
X137874762Y-99533865D01*
X138350952Y-99391008D02*
X138684285Y-99391008D01*
X138827142Y-99914818D02*
X138350952Y-99914818D01*
X138350952Y-99914818D02*
X138350952Y-98914818D01*
X138350952Y-98914818D02*
X138827142Y-98914818D01*
X139969999Y-98867199D02*
X139112857Y-100152913D01*
X140255714Y-99867199D02*
X140398571Y-99914818D01*
X140398571Y-99914818D02*
X140636666Y-99914818D01*
X140636666Y-99914818D02*
X140731904Y-99867199D01*
X140731904Y-99867199D02*
X140779523Y-99819579D01*
X140779523Y-99819579D02*
X140827142Y-99724341D01*
X140827142Y-99724341D02*
X140827142Y-99629103D01*
X140827142Y-99629103D02*
X140779523Y-99533865D01*
X140779523Y-99533865D02*
X140731904Y-99486246D01*
X140731904Y-99486246D02*
X140636666Y-99438627D01*
X140636666Y-99438627D02*
X140446190Y-99391008D01*
X140446190Y-99391008D02*
X140350952Y-99343389D01*
X140350952Y-99343389D02*
X140303333Y-99295770D01*
X140303333Y-99295770D02*
X140255714Y-99200532D01*
X140255714Y-99200532D02*
X140255714Y-99105294D01*
X140255714Y-99105294D02*
X140303333Y-99010056D01*
X140303333Y-99010056D02*
X140350952Y-98962437D01*
X140350952Y-98962437D02*
X140446190Y-98914818D01*
X140446190Y-98914818D02*
X140684285Y-98914818D01*
X140684285Y-98914818D02*
X140827142Y-98962437D01*
X141208095Y-99867199D02*
X141350952Y-99914818D01*
X141350952Y-99914818D02*
X141589047Y-99914818D01*
X141589047Y-99914818D02*
X141684285Y-99867199D01*
X141684285Y-99867199D02*
X141731904Y-99819579D01*
X141731904Y-99819579D02*
X141779523Y-99724341D01*
X141779523Y-99724341D02*
X141779523Y-99629103D01*
X141779523Y-99629103D02*
X141731904Y-99533865D01*
X141731904Y-99533865D02*
X141684285Y-99486246D01*
X141684285Y-99486246D02*
X141589047Y-99438627D01*
X141589047Y-99438627D02*
X141398571Y-99391008D01*
X141398571Y-99391008D02*
X141303333Y-99343389D01*
X141303333Y-99343389D02*
X141255714Y-99295770D01*
X141255714Y-99295770D02*
X141208095Y-99200532D01*
X141208095Y-99200532D02*
X141208095Y-99105294D01*
X141208095Y-99105294D02*
X141255714Y-99010056D01*
X141255714Y-99010056D02*
X141303333Y-98962437D01*
X141303333Y-98962437D02*
X141398571Y-98914818D01*
X141398571Y-98914818D02*
X141636666Y-98914818D01*
X141636666Y-98914818D02*
X141779523Y-98962437D01*
X134708095Y-106374819D02*
X134708095Y-107184342D01*
X134708095Y-107184342D02*
X134755714Y-107279580D01*
X134755714Y-107279580D02*
X134803333Y-107327200D01*
X134803333Y-107327200D02*
X134898571Y-107374819D01*
X134898571Y-107374819D02*
X135089047Y-107374819D01*
X135089047Y-107374819D02*
X135184285Y-107327200D01*
X135184285Y-107327200D02*
X135231904Y-107279580D01*
X135231904Y-107279580D02*
X135279523Y-107184342D01*
X135279523Y-107184342D02*
X135279523Y-106374819D01*
X135708095Y-106470057D02*
X135755714Y-106422438D01*
X135755714Y-106422438D02*
X135850952Y-106374819D01*
X135850952Y-106374819D02*
X136089047Y-106374819D01*
X136089047Y-106374819D02*
X136184285Y-106422438D01*
X136184285Y-106422438D02*
X136231904Y-106470057D01*
X136231904Y-106470057D02*
X136279523Y-106565295D01*
X136279523Y-106565295D02*
X136279523Y-106660533D01*
X136279523Y-106660533D02*
X136231904Y-106803390D01*
X136231904Y-106803390D02*
X135660476Y-107374819D01*
X135660476Y-107374819D02*
X136279523Y-107374819D01*
D12*
G04 #@! TO.C,J2*
X119100000Y-97730000D02*
X165735000Y-97730000D01*
X119100000Y-100270000D02*
X119100000Y-97730000D01*
X165735000Y-97730000D02*
X166370000Y-98365000D01*
X166370000Y-98365000D02*
X166370000Y-100270000D01*
X166370000Y-100270000D02*
X119100000Y-100270000D01*
D13*
G04 #@! TO.C,SPI*
X112290000Y-106450000D02*
G75*
G02*
X112230000Y-106450000I-30000J0D01*
G01*
X112230000Y-106450000D02*
G75*
G02*
X112290000Y-106450000I30000J0D01*
G01*
G04 #@! TO.C,EC11*
X112340000Y-97500000D02*
G75*
G02*
X112280000Y-97500000I-30000J0D01*
G01*
X112280000Y-97500000D02*
G75*
G02*
X112340000Y-97500000I30000J0D01*
G01*
D14*
G04 #@! TO.C,J4*
X221700000Y-111130000D02*
G75*
G02*
X221340000Y-111130000I-180000J0D01*
G01*
X221340000Y-111130000D02*
G75*
G02*
X221700000Y-111130000I180000J0D01*
G01*
X221699999Y-113130000D02*
G75*
G02*
X221340001Y-113130000I-179999J0D01*
G01*
X221340001Y-113130000D02*
G75*
G02*
X221699999Y-113130000I179999J0D01*
G01*
D12*
G04 #@! TO.C,R2*
X146320000Y-104480200D02*
X148320000Y-104480200D01*
X146320000Y-105730200D02*
X146320000Y-104480200D01*
X148320000Y-104480200D02*
X148320000Y-105730200D01*
X148320000Y-105730200D02*
X146320000Y-105730200D01*
G04 #@! TO.C,R5*
X222590000Y-100245000D02*
X224590000Y-100245000D01*
X222590000Y-101495000D02*
X222590000Y-100245000D01*
X224590000Y-100245000D02*
X224590000Y-101495000D01*
X224590000Y-101495000D02*
X222590000Y-101495000D01*
G04 #@! TO.C,R4*
X123027600Y-104480200D02*
X125027600Y-104480200D01*
X123027600Y-105730200D02*
X123027600Y-104480200D01*
X125027600Y-104480200D02*
X125027600Y-105730200D01*
X125027600Y-105730200D02*
X123027600Y-105730200D01*
D13*
G04 #@! TO.C,U1*
X161570000Y-105460000D02*
G75*
G02*
X161510000Y-105460000I-30000J0D01*
G01*
X161510000Y-105460000D02*
G75*
G02*
X161570000Y-105460000I30000J0D01*
G01*
D12*
G04 #@! TO.C,R1*
X146320000Y-102092600D02*
X148320000Y-102092600D01*
X146320000Y-103342600D02*
X146320000Y-102092600D01*
X148320000Y-102092600D02*
X148320000Y-103342600D01*
X148320000Y-103342600D02*
X146320000Y-103342600D01*
G04 #@! TO.C,R3*
X123027600Y-102092600D02*
X125027600Y-102092600D01*
X123027600Y-103342600D02*
X123027600Y-102092600D01*
X125027600Y-102092600D02*
X125027600Y-103342600D01*
X125027600Y-103342600D02*
X123027600Y-103342600D01*
D13*
G04 #@! TO.C,SW1*
X228610000Y-104980000D02*
G75*
G02*
X228550000Y-104980000I-30000J0D01*
G01*
X228550000Y-104980000D02*
G75*
G02*
X228610000Y-104980000I30000J0D01*
G01*
D12*
G04 #@! TO.C,J3*
X121100000Y-113030000D02*
X165735000Y-113030000D01*
X121100000Y-115570000D02*
X121100000Y-113030000D01*
X165735000Y-113030000D02*
X166370000Y-113665000D01*
X166370000Y-113665000D02*
X166370000Y-115570000D01*
X166370000Y-115570000D02*
X121100000Y-115570000D01*
G04 #@! TO.C,R6*
X222590000Y-98165000D02*
X224590000Y-98165000D01*
X222590000Y-99415000D02*
X222590000Y-98165000D01*
X224590000Y-98165000D02*
X224590000Y-99415000D01*
X224590000Y-99415000D02*
X222590000Y-99415000D01*
D13*
G04 #@! TO.C,U2*
X139560000Y-105520000D02*
G75*
G02*
X139500000Y-105520000I-30000J0D01*
G01*
X139500000Y-105520000D02*
G75*
G02*
X139560000Y-105520000I30000J0D01*
G01*
G04 #@! TD*
M02*
