G04 #@! TF.GenerationSoftware,KiCad,Pcbnew,8.0.3*
G04 #@! TF.CreationDate,2024-08-28T21:52:25+01:00*
G04 #@! TF.ProjectId,Seeed,53656565-642e-46b6-9963-61645f706362,rev?*
G04 #@! TF.SameCoordinates,Original*
G04 #@! TF.FileFunction,Other,User*
%FSLAX46Y46*%
G04 Gerber Fmt 4.6, Leading zero omitted, Abs format (unit mm)*
G04 Created by KiCad (PCBNEW 8.0.3) date 2024-08-28 21:52:25*
%MOMM*%
%LPD*%
G01*
G04 APERTURE LIST*
%ADD10C,0.050000*%
G04 APERTURE END LIST*
D10*
G04 #@! TO.C,J2*
X115050000Y-97200000D02*
X115050000Y-100800000D01*
X115050000Y-100800000D02*
X166900000Y-100800000D01*
X166900000Y-97200000D02*
X115050000Y-97200000D01*
X166900000Y-100800000D02*
X166900000Y-97200000D01*
G04 #@! TO.C,R2*
X145470000Y-104155200D02*
X149170000Y-104155200D01*
X145470000Y-106055200D02*
X145470000Y-104155200D01*
X149170000Y-104155200D02*
X149170000Y-106055200D01*
X149170000Y-106055200D02*
X145470000Y-106055200D01*
G04 #@! TO.C,R5*
X221740000Y-99920000D02*
X225440000Y-99920000D01*
X221740000Y-101820000D02*
X221740000Y-99920000D01*
X225440000Y-99920000D02*
X225440000Y-101820000D01*
X225440000Y-101820000D02*
X221740000Y-101820000D01*
G04 #@! TO.C,R4*
X122177600Y-104155200D02*
X125877600Y-104155200D01*
X122177600Y-106055200D02*
X122177600Y-104155200D01*
X125877600Y-104155200D02*
X125877600Y-106055200D01*
X125877600Y-106055200D02*
X122177600Y-106055200D01*
G04 #@! TO.C,R1*
X145470000Y-101767600D02*
X149170000Y-101767600D01*
X145470000Y-103667600D02*
X145470000Y-101767600D01*
X149170000Y-101767600D02*
X149170000Y-103667600D01*
X149170000Y-103667600D02*
X145470000Y-103667600D01*
G04 #@! TO.C,R3*
X122177600Y-101767600D02*
X125877600Y-101767600D01*
X122177600Y-103667600D02*
X122177600Y-101767600D01*
X125877600Y-101767600D02*
X125877600Y-103667600D01*
X125877600Y-103667600D02*
X122177600Y-103667600D01*
G04 #@! TO.C,V+*
X205560000Y-100710000D02*
X205560000Y-96710000D01*
X205560000Y-100710000D02*
X209560000Y-100710000D01*
X209560000Y-96710000D02*
X205560000Y-96710000D01*
X209560000Y-96710000D02*
X209560000Y-100710000D01*
G04 #@! TO.C,J3*
X115050000Y-112500000D02*
X115050000Y-116100000D01*
X115050000Y-116100000D02*
X166900000Y-116100000D01*
X166900000Y-112500000D02*
X115050000Y-112500000D01*
X166900000Y-116100000D02*
X166900000Y-112500000D01*
G04 #@! TO.C,R6*
X221740000Y-97840000D02*
X225440000Y-97840000D01*
X221740000Y-99740000D02*
X221740000Y-97840000D01*
X225440000Y-97840000D02*
X225440000Y-99740000D01*
X225440000Y-99740000D02*
X221740000Y-99740000D01*
G04 #@! TD*
M02*
