G04 #@! TF.GenerationSoftware,KiCad,Pcbnew,8.0.3*
G04 #@! TF.CreationDate,2024-08-28T21:52:25+01:00*
G04 #@! TF.ProjectId,Seeed,53656565-642e-46b6-9963-61645f706362,rev?*
G04 #@! TF.SameCoordinates,Original*
G04 #@! TF.FileFunction,Legend,Bot*
G04 #@! TF.FilePolarity,Positive*
%FSLAX46Y46*%
G04 Gerber Fmt 4.6, Leading zero omitted, Abs format (unit mm)*
G04 Created by KiCad (PCBNEW 8.0.3) date 2024-08-28 21:52:25*
%MOMM*%
%LPD*%
G01*
G04 APERTURE LIST*
%ADD10C,0.150000*%
%ADD11C,0.250000*%
%ADD12O,1.700000X1.700000*%
%ADD13C,1.400000*%
%ADD14C,0.900000*%
%ADD15R,1.700000X1.700000*%
%ADD16R,1.400000X2.000000*%
%ADD17R,1.000000X2.200000*%
%ADD18R,1.300000X0.700000*%
%ADD19R,1.300000X0.800000*%
%ADD20R,1.300000X0.900000*%
%ADD21C,1.397000*%
G04 APERTURE END LIST*
D10*
X223384820Y-100201905D02*
X224194343Y-100201905D01*
X224194343Y-100201905D02*
X224289581Y-100249524D01*
X224289581Y-100249524D02*
X224337201Y-100297143D01*
X224337201Y-100297143D02*
X224384820Y-100392381D01*
X224384820Y-100392381D02*
X224384820Y-100582857D01*
X224384820Y-100582857D02*
X224337201Y-100678095D01*
X224337201Y-100678095D02*
X224289581Y-100725714D01*
X224289581Y-100725714D02*
X224194343Y-100773333D01*
X224194343Y-100773333D02*
X223384820Y-100773333D01*
X224337201Y-101201905D02*
X224384820Y-101344762D01*
X224384820Y-101344762D02*
X224384820Y-101582857D01*
X224384820Y-101582857D02*
X224337201Y-101678095D01*
X224337201Y-101678095D02*
X224289581Y-101725714D01*
X224289581Y-101725714D02*
X224194343Y-101773333D01*
X224194343Y-101773333D02*
X224099105Y-101773333D01*
X224099105Y-101773333D02*
X224003867Y-101725714D01*
X224003867Y-101725714D02*
X223956248Y-101678095D01*
X223956248Y-101678095D02*
X223908629Y-101582857D01*
X223908629Y-101582857D02*
X223861010Y-101392381D01*
X223861010Y-101392381D02*
X223813391Y-101297143D01*
X223813391Y-101297143D02*
X223765772Y-101249524D01*
X223765772Y-101249524D02*
X223670534Y-101201905D01*
X223670534Y-101201905D02*
X223575296Y-101201905D01*
X223575296Y-101201905D02*
X223480058Y-101249524D01*
X223480058Y-101249524D02*
X223432439Y-101297143D01*
X223432439Y-101297143D02*
X223384820Y-101392381D01*
X223384820Y-101392381D02*
X223384820Y-101630476D01*
X223384820Y-101630476D02*
X223432439Y-101773333D01*
X223861010Y-102535238D02*
X223908629Y-102678095D01*
X223908629Y-102678095D02*
X223956248Y-102725714D01*
X223956248Y-102725714D02*
X224051486Y-102773333D01*
X224051486Y-102773333D02*
X224194343Y-102773333D01*
X224194343Y-102773333D02*
X224289581Y-102725714D01*
X224289581Y-102725714D02*
X224337201Y-102678095D01*
X224337201Y-102678095D02*
X224384820Y-102582857D01*
X224384820Y-102582857D02*
X224384820Y-102201905D01*
X224384820Y-102201905D02*
X223384820Y-102201905D01*
X223384820Y-102201905D02*
X223384820Y-102535238D01*
X223384820Y-102535238D02*
X223432439Y-102630476D01*
X223432439Y-102630476D02*
X223480058Y-102678095D01*
X223480058Y-102678095D02*
X223575296Y-102725714D01*
X223575296Y-102725714D02*
X223670534Y-102725714D01*
X223670534Y-102725714D02*
X223765772Y-102678095D01*
X223765772Y-102678095D02*
X223813391Y-102630476D01*
X223813391Y-102630476D02*
X223861010Y-102535238D01*
X223861010Y-102535238D02*
X223861010Y-102201905D01*
X224384820Y-103725714D02*
X224384820Y-103154286D01*
X224384820Y-103440000D02*
X223384820Y-103440000D01*
X223384820Y-103440000D02*
X223527677Y-103344762D01*
X223527677Y-103344762D02*
X223622915Y-103249524D01*
X223622915Y-103249524D02*
X223670534Y-103154286D01*
D11*
G04 #@! TO.C,USB1*
X227550000Y-98510000D02*
X227550000Y-97850000D01*
X227550000Y-106030000D02*
X227550000Y-105370000D01*
X228709999Y-97440000D02*
X230650001Y-97440000D01*
X228709999Y-106440000D02*
X230650001Y-106440000D01*
X232510000Y-97440000D02*
X234380000Y-97440000D01*
X232510000Y-106440000D02*
X234380000Y-106440000D01*
X234380000Y-106440000D02*
X234380000Y-97440000D01*
G04 #@! TD*
%LPC*%
D12*
G04 #@! TO.C,J2*
X165100000Y-99000000D03*
X162560000Y-99000000D03*
X160020001Y-99000000D03*
X157480000Y-99000000D03*
X149860000Y-99000000D03*
X147319999Y-99000000D03*
X144780000Y-99000000D03*
X142240000Y-99000000D03*
X139700000Y-99000000D03*
X137160001Y-99000000D03*
X134620000Y-99000000D03*
X132080000Y-99000000D03*
X129540000Y-99000000D03*
X127000001Y-99000000D03*
X124459999Y-99000000D03*
G04 #@! TD*
D13*
G04 #@! TO.C,J4*
X221520000Y-111130000D03*
X221520000Y-113130000D03*
G04 #@! TD*
D14*
G04 #@! TO.C,SW1*
X230920000Y-103420000D03*
X230920000Y-100420000D03*
G04 #@! TD*
D15*
G04 #@! TO.C,J3*
X165100000Y-114300000D03*
D12*
X162560000Y-114300000D03*
X160020001Y-114300000D03*
X157480000Y-114300000D03*
X154940000Y-114300000D03*
X152400000Y-114300000D03*
X149860000Y-114300000D03*
X147319999Y-114300000D03*
X144780000Y-114300000D03*
X129540000Y-114300000D03*
G04 #@! TD*
D16*
G04 #@! TO.C,USB1*
X231570000Y-96620000D03*
D17*
X227980000Y-96670000D03*
X227980000Y-107210000D03*
D16*
X231570000Y-107260000D03*
D18*
X227930000Y-101440000D03*
D19*
X227930000Y-103460000D03*
D20*
X227930000Y-104690000D03*
D18*
X227930000Y-102440000D03*
D19*
X227930000Y-100420000D03*
D20*
X227930000Y-99190000D03*
G04 #@! TD*
D21*
G04 #@! TO.C,XIAO1*
X186143400Y-105455000D03*
X186143400Y-107995000D03*
X183603400Y-105454999D03*
X183603400Y-107995001D03*
X177888400Y-102280000D03*
X179793400Y-102280000D03*
X168363400Y-110535000D03*
X168363400Y-112440000D03*
G04 #@! TD*
%LPD*%
M02*
